<svg width="400" height="400" viewBox="0 0 400 400" fill="none" xmlns="http://www.w3.org/2000/svg">
<path d="M122 61.4145C73.6488 88.6865 41 140.53 41 200C41 287.813 112.187 359 200 359C287.813 359 359 287.813 359 200C359 112.187 287.813 41 200 41C171.656 41 145.045 48.4164 122 61.4145ZM122 61.4145V280.5M280 279C280 322.63 244.63 358 201 358C157.37 358 122 322.63 122 279C122 235.37 157.37 200 201 200C244.63 200 280 235.37 280 279Z" stroke="url(#paint0_linear)" stroke-width="18"/>
<defs>
<linearGradient id="paint0_linear" x1="200" y1="41" x2="200" y2="359" gradientUnits="userSpaceOnUse">
<stop stop-color="#EEA7ED"/>
<stop offset="1" stop-color="#0217B0"/>
</linearGradient>
</defs>
</svg>
