<svg width="345" height="114" viewBox="0 0 345 114" fill="none" xmlns="http://www.w3.org/2000/svg">
<g opacity="0.5">
<path d="M58.6583 40.2341C58.2986 39.5817 58.0127 38.8731 57.5682 38.285C55.0489 34.9501 51.9744 32.2281 48.3705 30.1079C47.8399 29.796 47.3051 29.491 46.6459 29.1094C46.9632 28.6251 47.2094 28.1628 47.5335 27.7648C51.549 22.8432 56.4221 19.1787 62.656 17.5441C66.4582 16.547 70.2959 16.5647 74.1049 17.4087C77.278 18.1104 79.8013 20.0788 82.3179 22.0075C82.6858 22.2892 83.0099 22.6257 83.5816 22.7652C83.3833 22.4712 83.2219 22.1415 82.9798 21.8898C78.2928 17.0189 72.5813 14.8495 65.8468 15.4978C58.6227 16.1927 52.8894 19.7642 48.0149 24.9183C46.9782 26.0139 46.0455 27.208 45.017 28.4118C44.6408 28.2476 44.2771 28.0903 43.9365 27.9412C43.9693 27.7224 43.9474 27.5692 44.0131 27.4775C48.7973 20.7641 54.8643 15.8165 63.0253 13.8304C69.0103 12.3736 74.5973 13.3407 79.8164 16.6646C85.056 20.0022 88.2386 24.8334 90.2573 30.5661C90.323 30.7549 90.379 30.9464 90.6909 31.0818C90.5678 30.5374 90.4652 29.9862 90.3202 29.4472C89.2042 25.3177 87.2552 21.619 84.26 18.5659C77.5474 11.7253 69.4644 10.2247 60.5252 12.9714C53.513 15.1258 48.1025 19.6233 43.6534 25.3519C43.2321 25.8949 42.8205 26.4461 42.402 26.9919C42.3609 27.0453 42.3007 27.0808 42.0546 27.2915C41.3639 27.1588 40.5159 26.996 39.5941 26.8182C39.6611 26.5036 39.6461 26.2888 39.7432 26.1575C45.2153 18.7766 52.0414 13.2135 60.9656 10.5434C66.305 8.94578 71.665 8.80626 76.9825 10.7021C79.9436 11.7581 82.5805 13.3653 84.7619 15.6291C89.5475 20.5945 92.5345 26.4229 93.0474 33.3935C93.1486 34.7655 93.2361 36.1388 93.5548 37.5709C93.6533 37.0347 93.8365 36.4985 93.8365 35.9623C93.8283 30.5169 92.8641 25.2794 90.2409 20.4454C84.9685 10.7267 75.3153 6.92409 65.9029 8.0129C58.2521 8.89927 51.7638 12.2984 45.9648 17.1885C43.1104 19.5946 40.5993 22.333 38.4275 25.3669C37.7901 26.2574 37.1104 26.7334 35.889 26.2464C35.9369 26.0331 35.9287 25.7636 36.0477 25.5735C42.0272 16.0586 50.1294 9.2727 61.1338 6.35369C66.8521 4.83674 72.5882 4.91607 78.1765 7.03215C85.4348 9.78154 90.3202 14.9657 93.0241 22.1607C95.7554 29.4253 96.2273 36.8952 94.5218 44.4855C94.478 44.6811 94.4903 44.8876 94.4684 45.209C95.0975 44.5634 95.1536 43.8138 95.3123 43.1039C95.4764 42.3666 95.6939 41.6389 95.8293 40.8976C97.0315 34.34 96.8372 27.8509 94.4028 21.5944C90.535 11.6541 83.2985 5.69302 72.7072 4.16512C66.2886 3.23908 60.1053 4.46331 54.2297 7.2004C46.0701 11.0017 39.7623 16.8752 34.9645 24.4368C34.6321 24.9593 34.3723 25.5406 33.9729 26.003C33.7623 26.2478 33.3233 26.2971 32.664 26.5665C32.8582 25.8716 32.9157 25.4845 33.0702 25.1412C38.7243 12.5829 48.1586 4.54128 61.7958 2.20635C73.4867 0.205173 83.5885 3.69321 91.3857 12.8688C95.7595 18.016 97.874 24.1358 98.3773 30.8411C98.9271 38.1796 97.0616 45.0216 94.132 51.6448C93.6164 52.813 93.0378 53.9524 92.6002 55.167C94.4506 53.4025 95.3396 51.0074 96.7511 48.8175C98.99 50.2688 100.438 52.2166 101.4 54.5542C102.348 56.8605 102.372 59.3062 102.393 61.7601C103.591 59.0189 103.358 56.3065 102.367 53.594C101.393 50.9281 99.641 48.8653 97.3939 47.3046C97.4937 46.4716 97.9656 46.3307 98.4224 46.6644C99.4673 47.4277 100.575 48.1746 101.411 49.1416C103.271 51.2946 104.079 53.9319 104.299 56.7319C104.555 59.9764 104.401 63.1895 103.055 66.3739C105.269 64.396 106.371 59.1161 105.502 54.6076C104.66 50.2523 102.448 46.8354 98.2528 44.811C98.3759 44.4335 98.4757 44.1298 98.6111 43.7167C98.9654 43.7714 99.3196 43.7468 99.5986 43.8809C104.462 46.2172 107.303 50.0102 107.642 55.4557C107.883 59.3021 107.213 62.998 105.231 66.3807C105.058 66.6735 104.937 66.9963 104.804 67.3109C104.788 67.3506 104.857 67.4272 104.948 67.6063C106.478 66.14 107.345 64.3249 108.086 62.4454C108.877 60.4429 109.315 58.3555 109.254 56.1957C109.196 54.1152 108.789 52.0962 107.939 50.1853C107.059 48.2088 105.885 46.4032 104.172 45.0832C102.573 43.8508 100.809 42.8344 98.886 41.5705C99.3976 41.4611 99.7381 41.2669 99.9638 41.3572C105.496 43.5854 109.275 47.3949 110.459 53.3902C111.302 57.6511 110.268 61.5837 108.003 65.2222C105.871 68.6473 103.326 71.688 99.8393 73.8328C99.6096 73.9737 99.4112 74.1666 99.2717 74.5332C99.7299 74.3663 100.21 74.2432 100.642 74.0257C103.447 72.6195 105.905 70.7469 107.847 68.2807C108.534 67.408 109.282 67.0797 110.32 67.2165C110.524 67.2439 110.734 67.2343 110.937 67.274C116.031 68.2698 123.358 72.5457 123.357 80.6789C123.357 80.9949 123.398 81.3109 123.45 82.0359C124.06 81.0195 124.05 80.2946 123.995 79.5587C123.526 73.231 118.216 67.2192 111.967 65.9444C111.383 65.8254 110.797 65.7091 109.948 65.5381C111.652 65.0457 112.474 65.0143 114.117 65.4998C120.426 67.3656 124.262 71.5772 125.739 77.9473C126.236 80.0894 126.336 82.2752 125.95 84.4542C127.605 79.4055 126.716 74.7315 123.679 70.4693C120.687 66.2672 116.539 63.9446 111.377 63.3742C113.375 62.8503 115.257 63.2183 117.12 63.8324C122.434 65.5846 129.182 72.2913 128.598 81.0223C128.484 82.7089 127.9 84.3708 127.467 86.0259C127.279 86.7427 126.925 87.4156 126.84 88.2774C127.106 87.9683 127.421 87.6892 127.628 87.3445C129.715 83.8578 130.069 80.0908 129.312 76.1828C128.77 73.3896 127.566 70.8591 125.998 68.4585C127.495 69.1643 128.202 70.6375 129.437 71.6812C129.197 71.0055 128.955 70.3311 128.639 69.4447C131.458 68.8689 134.03 69.1862 136.478 70.4228C139.482 71.9383 142.048 73.9655 143.7 76.983C144.39 78.2455 145.076 79.5108 145.755 80.7583C145.878 78.132 143.203 73.5182 140.023 70.9207C136.763 68.2574 133 67.2781 128.661 67.739C130.021 66.9156 131.259 66.6844 133.19 66.9799C136.789 67.5311 139.876 69.152 142.238 71.9055C145.385 75.5768 147.502 79.783 148.184 84.6348C148.229 84.9603 148.348 85.2763 148.708 85.621C148.749 85.4158 148.828 85.2107 148.827 85.0069C148.778 79.1702 146.849 74.0845 142.679 69.9413C140.436 67.713 137.771 66.2193 134.655 65.5272C132.234 64.9883 129.876 65.136 127.535 65.8951C127.148 66.021 126.76 66.1359 126.263 66.2905C122.485 62.351 117.957 59.8137 112.284 59.2911C113.24 49.474 108.824 43.041 99.7121 39.3409C99.7874 38.3574 99.8489 37.2809 99.9529 36.2072C100.656 28.9972 99.2772 22.1962 95.6036 15.9725C90.2573 6.91451 82.218 1.75632 71.8359 0.321441C56.4153 -1.81105 40.758 6.8639 33.2562 20.8448C32.2523 22.716 31.4372 24.6885 30.4894 26.7101C30.1817 26.8141 29.8028 26.9769 29.4076 27.0685C22.8112 28.6142 17.6646 32.3143 13.7106 37.7296C10.2695 42.4446 8.33287 47.7615 7.61757 53.5379C7.52457 54.2889 7.43976 55.0412 7.33582 55.7908C7.30847 55.9878 7.21957 56.1752 7.16623 56.3489C-2.36517 58.1203 -7.6581 66.7938 -5.35081 77.2552C-8.3228 78.4562 -11.2866 79.8213 -14.0001 82.2534C-12.8362 82.3532 -12.285 81.7883 -11.6723 81.4491C-6.61322 78.6491 -1.19032 77.3291 4.57584 77.552C8.84302 77.7162 12.8914 78.7024 16.3462 81.3916C17.3678 82.1863 18.2965 83.1028 19.2867 83.9796C19.0036 82.6952 18.7068 82.159 17.3159 80.854C16.4241 80.0183 15.4462 79.2742 14.3507 78.3591C15.2629 77.1854 16.0781 76.0009 17.03 74.938C20.72 70.8167 25.2006 68.0263 30.7123 67.066C33.5421 66.5722 36.3267 66.7829 39.0539 67.7267C39.8909 68.0167 40.4188 68.4954 40.7265 69.3668C41.3652 71.1765 42.123 72.9437 43.4387 74.6549C43.663 73.6796 43.1515 73.0956 42.9162 72.454C41.2381 67.869 40.4516 63.1936 41.052 58.2817C42.5086 46.384 53.6744 38.9538 65.9111 43.2982C71.5118 45.2856 75.7612 48.9406 79.1845 53.6829C79.6222 54.2889 80.0626 54.8921 80.73 55.3941C80.6261 55.0303 80.585 54.6322 80.4086 54.3067C76.0211 46.1734 69.4247 41.2573 60.0711 40.3696C59.5938 40.3244 59.1178 40.2601 58.6419 40.2054C58.0291 40.2848 57.4151 40.3614 56.8023 40.4421C49.2951 41.4283 43.9516 45.3486 40.9016 52.2904C39.4943 55.494 39.0279 58.8863 39.2727 62.3743C39.3534 63.5247 39.4655 64.6737 39.5763 65.9772C39.0334 65.8637 38.6504 65.7939 38.2716 65.7009C34.0577 64.6737 29.9519 65.0484 25.9337 66.6311C21.0633 68.5502 17.1654 71.7168 14.0471 75.8846C13.6094 76.4701 13.1841 77.0664 12.8025 77.5917C6.2923 75.5481 6.2923 75.5481 -3.41554 76.5467C-4.11034 74.8833 -4.33601 73.6441 -4.21976 71.5526C-3.80672 64.0677 1.31255 59.1256 6.73268 58.3596C6.84073 58.3446 6.96519 58.4567 7.15668 58.5429C7.15668 58.8343 7.15668 59.1585 7.15668 59.4662C-0.35466 62.6342 -3.43333 67.0182 -2.43767 73.4881C-2.03419 71.8918 -1.84271 70.5294 -1.33667 69.297C-0.821045 68.0413 -0.102997 66.828 0.727188 65.7529C1.55737 64.6791 2.55852 63.6984 3.62941 62.8626C4.64149 62.072 5.76982 61.3142 7.23735 61.5782C5.48125 62.5247 3.7812 63.4987 2.55713 65.1141C1.31528 66.7528 0.371582 68.516 0.10762 70.6006C0.807877 69.8346 1.34537 68.9824 1.87465 68.1234C3.09874 66.14 4.74269 64.623 6.86671 63.6519C7.0322 63.5766 7.2606 63.6423 7.54782 63.6423C7.61894 64.0964 7.68869 64.5451 7.7516 64.9404C4.92459 66.6324 4.18059 67.46 3.69505 69.5432C5.14891 68.4763 6.20613 67.051 8.01149 66.6338C8.97296 68.9687 9.2123 71.5608 10.7619 73.6317C10.9055 73.3486 10.9506 73.0914 10.8987 72.8575C10.5239 71.1833 10.0999 69.52 9.74707 67.8416C8.55717 62.1828 8.46008 56.5322 9.76076 50.8597C10.9342 45.7425 12.9953 41.0726 16.4036 37.058C20.9867 31.6591 26.7994 28.5089 33.8991 28.1423C40.4079 27.8072 46.215 30.1175 51.4095 33.8312C54.0191 35.6942 56.2539 38.0825 58.6583 40.2341ZM112.039 61.4551C112.068 61.3347 112.097 61.213 112.125 61.0926C112.616 61.135 113.106 61.1774 113.597 61.2212C113.59 61.2992 113.583 61.3771 113.575 61.4565C113.063 61.4551 112.551 61.4551 112.039 61.4551Z" fill="url(#paint0_linear)"/>
<path d="M132.805 96.6405C131.63 95.7268 130.456 94.813 129.195 93.8323C129.355 93.6367 129.481 93.3987 129.675 93.2578C133.229 90.6726 137.2 88.9942 141.439 87.9396C143.815 87.3473 146.211 87.4129 148.581 88.0859C149.023 88.2118 149.486 88.2569 150.288 88.4019C148.815 86.9602 147.245 86.7919 145.707 86.6374C142.221 86.2858 138.858 86.8631 135.598 88.116C132.624 89.2596 129.904 90.8476 127.285 92.8693C122.551 90.6876 117.551 89.5386 112.33 89.7233C107.076 89.9093 102.132 91.1841 97.9916 94.8527C94.5368 88.9833 89.3259 85.5937 83.2343 83.3627C79.045 81.828 73.3445 81.0333 69.396 82.0783C70.1866 82.1713 70.6433 82.2794 71.0988 82.2698C74.8791 82.1919 78.4652 82.9647 81.8789 84.6047C83.1782 85.2285 84.5568 85.6853 85.8602 86.3009C88.7433 87.6619 91.4199 89.3676 93.5507 91.76C94.6367 92.9788 95.5284 94.389 96.3928 95.7842C97.3256 97.2889 97.8412 97.4735 99.0488 96.2917C101.943 93.4643 105.54 92.236 109.42 91.6848C113.348 91.1267 117.245 91.4098 121.071 92.4453C123.059 92.9829 125.072 93.4876 126.982 94.2386C128.885 94.9854 130.674 96.0209 132.512 96.9291C132.608 96.832 132.706 96.7363 132.805 96.6405Z" fill="url(#paint1_linear)"/>
<path d="M75.1143 51.4342C72.0164 47.425 67.819 45.2474 63.028 44.1038C60.5183 43.5047 57.9539 43.3926 55.4442 43.8549C48.5333 45.1284 44.4849 49.4768 42.7822 56.1492C41.6155 60.7247 42.4266 65.1579 43.9283 69.5186C43.9693 69.6363 44.0719 69.7375 44.1621 69.8319C44.2059 69.877 44.2866 69.8852 44.5643 69.996C44.3099 68.4791 44.0309 67.0825 43.8462 65.6736C43.3662 62.0173 43.5098 58.4294 44.7133 54.8785C47.2463 47.4086 54.1025 44.32 60.5566 45.2132C65.6485 45.9176 70.1947 47.8819 74.3278 50.887C74.5863 51.0731 74.8517 51.2523 75.1143 51.4342Z" fill="url(#paint2_linear)"/>
<path d="M46.1055 66.8143C46.0713 66.1646 46.0822 65.5094 45.9933 64.8665C45.6118 62.087 45.9496 59.3801 46.8222 56.7374C48.9558 50.277 54.4908 47.1117 61.373 48.0487C65.8769 48.6629 67.9011 49.5287 72.4541 51.8924C71.933 51.4178 71.4612 50.8692 70.8826 50.4794C66.8438 47.7628 62.4727 46.2035 57.5107 46.5304C50.6667 46.9804 44.9252 52.7788 44.7884 59.6304C44.7501 61.5372 45.0797 63.4563 45.2958 65.3631C45.3546 65.8787 45.6172 66.3712 45.7855 66.8745C45.8935 66.8554 45.9988 66.8349 46.1055 66.8143Z" fill="url(#paint3_linear)"/>
<path d="M16.7033 78.7626C22.8428 71.5485 30.1682 68.2561 39.4985 69.5405C38.2936 68.3915 36.9122 68.1863 35.5801 68.0878C30.0423 67.6816 25.1227 69.3777 20.8118 72.8028C19.1883 74.0927 17.9807 75.7943 17.0288 77.6505C16.918 77.8694 16.8852 78.1279 16.7033 78.7626Z" fill="url(#paint4_linear)"/>
<path d="M-10.756 83.4708C-2.63739 79.322 5.4005 79.229 13.7776 82.2506C8.49558 76.9406 -6.87312 77.909 -10.756 83.4708Z" fill="url(#paint5_linear)"/>
<path d="M76.9086 79.545C84.6018 81.6228 91.9887 83.8866 97.1694 90.5467C97.0778 90.2253 97.0491 89.8683 96.8863 89.5892C94.962 86.2913 92.3484 83.7334 88.8416 82.1426C85.8806 80.7994 82.8307 79.7653 79.5578 79.5546C78.6784 79.4958 77.7922 79.545 76.9086 79.545Z" fill="url(#paint6_linear)"/>
<path d="M20.1073 78.0581C24.7766 74.1461 30.1379 72.0396 36.2378 71.7305C34.5829 70.6567 32.0869 70.6335 28.8728 71.6292C25.2061 72.7646 21.9605 74.4634 20.1073 78.0581Z" fill="url(#paint7_linear)"/>
<path d="M144.207 83.4913C143.274 75.9613 136.668 69.9742 130.284 70.7812C132.398 71.6566 134.432 72.3843 136.361 73.3268C138.296 74.272 139.749 75.8628 141.112 77.5015C142.517 79.188 143.404 81.1632 144.207 83.4913Z" fill="url(#paint8_linear)"/>
<path d="M97.3953 86.4869C95.4778 81.6133 91.7728 79.2893 86.644 79.0854C87.9488 79.6887 89.3028 80.2057 90.5432 80.9211C91.7864 81.6392 92.9681 82.4914 94.08 83.4038C95.2453 84.3585 96.2957 85.4528 97.3953 86.4869Z" fill="url(#paint9_linear)"/>
<path d="M140.852 83.6021C141.302 78.3222 137.204 73.9286 131.783 73.9888C134.021 75.1419 136.228 75.8833 137.784 77.6738C139.291 79.4082 140.195 81.4341 140.852 83.6021Z" fill="url(#paint10_linear)"/>
<path d="M11.0095 66.8663C11.0095 66.0798 11.041 65.4068 11.004 64.7393C10.7018 59.1831 11.5197 53.7609 13.1253 48.4659C14.6749 43.3556 17.3542 38.9087 21.5777 35.5465C27.1742 31.0914 33.5176 29.9287 40.4244 31.5236C44.47 32.4579 48.3173 33.875 51.8036 36.1812C52.1291 36.396 52.4943 36.5505 53.1248 36.8829C52.9702 36.4452 52.9634 36.2469 52.8622 36.1662C47.7292 32.0667 41.9836 29.4773 35.327 29.3775C27.575 29.2612 21.3643 32.4675 16.5897 38.4984C13.4084 42.5171 11.588 47.1624 10.6252 52.1591C9.81141 56.3804 9.85382 60.6371 10.2313 64.898C10.2792 65.441 10.431 65.9772 10.5636 66.5093C10.5883 66.6065 10.7565 66.6694 11.0095 66.8663Z" fill="url(#paint11_linear)"/>
<path d="M50.3264 37.0361C48.2257 35.1881 45.7666 34.0692 43.1762 33.2184C39.1921 31.9094 35.1301 31.4703 30.9942 32.3321C24.8547 33.611 20.314 37.1565 17.0165 42.3913C14.0554 47.0926 12.6987 52.3083 12.2296 57.7852C12.1065 59.2214 12.0997 60.6686 12.0819 62.1103C12.0764 62.5658 12.2104 63.024 12.5373 63.4823C12.6002 63.0377 12.6987 62.5945 12.722 62.1472C13.0393 55.8154 14.4835 49.7941 17.6442 44.2447C20.5588 39.1262 24.6673 35.4521 30.4635 33.979C34.8224 32.871 39.1907 33.0885 43.4675 34.4919C45.5505 35.1758 47.5897 35.9938 49.6467 36.7543C49.8765 36.8392 50.0994 36.9417 50.3264 37.0361Z" fill="url(#paint12_linear)"/>
<path d="M46.8594 37.1278C41.0412 34.7532 35.0672 34.0296 28.9933 35.9801C25.3648 37.1455 22.3668 39.3136 20.039 42.3311C15.6392 48.0392 14.3317 54.6746 14.1935 62.1637C14.9594 61.1145 15.0087 60.3348 15.1304 59.5839C15.7281 55.9112 16.6102 52.3219 18.0107 48.8585C20.9171 41.6718 26.1909 37.5532 33.8212 36.2633C37.8545 35.5821 41.7593 36.1839 45.6832 36.9322C46.0729 37.0074 46.4668 37.0635 46.8594 37.1278Z" fill="url(#paint13_linear)"/>
<path d="M162.613 93.4589C162.663 93.7926 162.713 94.1264 162.798 94.7009C163.587 93.4671 164.185 92.4111 164.902 91.4426C166.385 89.436 168.317 88.1721 170.902 88.1502C172.938 88.1324 173.395 88.4498 174.144 90.4605C176.212 96.0058 180.094 99.6881 185.633 101.663C186.02 101.801 186.451 101.819 186.955 101.748C181.077 98.5733 177.041 94.0443 175.698 87.3787C174.804 82.9387 175.645 78.8242 177.829 74.9312C181.965 67.5599 191.554 63.0391 199.942 66.2727C200.018 66.9388 199.753 67.2849 199.057 67.17C198.712 67.1126 198.376 66.9977 198.038 66.8992C192.415 65.2536 187.408 66.5928 183.018 70.2504C177.464 74.8779 175.299 82.2315 177.436 89.0927C178.433 92.2948 180.325 94.8965 183.16 96.7568C183.301 96.8498 183.467 96.9141 183.629 96.9592C183.685 96.9743 183.77 96.8867 183.918 96.8019C183.338 96.0592 182.787 95.3027 182.185 94.5901C180.195 92.2333 179.13 89.4497 178.619 86.4732C176.962 76.8175 185.043 67.196 194.947 68.1043C196.32 68.2301 197.722 68.3655 199.073 69.5337C198.603 69.7211 198.307 69.9604 198.068 69.9139C197.037 69.7115 196.036 69.3162 194.999 69.189C192.289 68.8566 189.763 69.5104 187.414 70.8714C180.893 74.6508 177.88 83.4106 180.693 90.4031C181.41 92.1868 182.14 93.1853 183.586 94.3206C183.724 93.515 183.203 92.9528 182.965 92.3372C181.906 89.5892 181.375 86.7673 181.552 83.8196C181.82 79.3289 183.78 75.7082 187.375 73.0696C190.13 71.0479 193.239 70.3325 196.61 71.3584C196.859 71.4336 197.098 71.5554 197.325 71.6867C197.469 71.7701 197.58 71.9083 197.915 72.2106C197.343 72.2543 196.975 72.346 196.626 72.2981C188.833 71.2572 183.181 75.5276 182.241 83.3176C181.806 86.9219 182.694 90.2991 184.625 93.3836C184.738 93.5642 184.981 93.6654 185.573 94.1141C185.269 93.2824 185.145 92.8939 184.987 92.5192C184.053 90.2964 183.704 87.9779 183.662 85.5732C183.609 82.5187 184.68 79.8733 186.46 77.5055C188.81 74.3814 192.847 73.0983 196.598 74.168C196.978 74.276 197.32 74.5209 197.614 75.0653C197.332 75.0858 197.038 75.1733 196.773 75.1173C195.025 74.7452 193.273 74.644 191.562 75.2089C189.291 75.9585 187.602 77.4563 186.437 79.5272C184.963 82.1494 184.554 84.9823 184.903 87.9409C184.944 88.2843 185.078 88.6208 185.198 88.9504C185.283 89.1843 185.417 89.3991 185.577 89.715C185.778 87.8657 185.926 86.1367 186.161 84.4173C186.473 82.1412 187.69 80.2973 189.248 78.7147C191.565 76.3634 194.211 76.0269 197.435 77.5001C197.943 79.7105 198.365 81.9456 198.986 84.1246C199.592 86.2489 200.667 88.1817 201.932 89.9941C203.238 91.8667 204.689 93.608 206.456 95.0237C207.007 94.6243 206.709 94.3384 206.523 94.0826C205.953 93.3016 205.38 92.5205 204.775 91.7668C202.822 89.3348 201.525 86.5621 200.489 83.6445C199.174 79.9417 199.333 76.2499 200.356 72.506C202.41 64.9896 207.045 59.5538 213.954 56.2272C225.479 50.6778 236.914 51.1155 247.96 57.6552C252.204 60.168 255.46 63.7107 257.562 68.2479C259.956 73.4143 260.116 78.7722 258.982 84.2422C258.518 86.4814 257.824 88.6495 256.543 90.7792C258.097 89.8409 259.261 87.9833 260.455 84.7867C261.323 82.4613 261.752 80.0498 261.902 77.5411C262.855 76.4906 264.155 76.1938 265.444 76.0132C268.182 75.6302 270.873 75.8573 273.479 76.8818C275.62 77.723 277.6 78.8324 279.478 80.1565C281.65 81.6885 283.093 83.7252 283.84 86.2544C284.161 87.3404 284.389 88.4539 284.762 89.9654C285.016 88.6057 284.987 87.6537 284.779 86.6811C284.387 84.8496 283.643 83.1876 282.588 81.6378C278.727 75.9585 269.865 72.227 263.018 74.7726C262.776 74.8628 262.507 74.8779 262.256 74.9258C261.791 74.1023 261.808 73.7111 262.441 73.547C264.135 73.1093 265.837 72.5648 267.566 72.4226C271.059 72.1367 274.371 72.967 277.451 74.659C278.067 74.9969 278.658 75.3826 279.263 75.7396C284.002 78.5205 286.131 82.8511 286.585 88.153C286.667 89.105 286.597 90.0707 286.751 91.0186C287.754 87.1093 287.363 83.349 285.289 79.8637C281.996 74.3266 276.997 71.3926 270.667 70.7333C267.947 70.4501 265.221 70.6307 262.591 71.5472C262.284 71.6539 261.925 71.6224 261.59 71.6333C261.52 71.6361 261.449 71.5362 261.206 71.3584C261.548 71.0889 261.81 70.7675 262.148 70.6334C264.644 69.6404 267.273 69.3942 269.919 69.4721C277.444 69.6964 283.189 73.0491 287.137 79.4643C288.822 82.2014 289.171 85.2421 289.03 88.3554C288.934 90.4728 288.46 92.5328 287.567 94.4779C287.393 94.8568 287.258 95.2535 287.095 95.6666C287.683 95.9675 287.809 95.5134 287.921 95.3082C291.298 89.1638 291.329 83.0221 287.595 77.05C284.487 72.0765 279.779 69.323 274.132 68.1179C271.187 67.4901 268.214 67.3082 265.231 67.9784C264.759 68.0837 264.242 67.9935 263.346 67.9935C272.021 65.0922 282.875 68.3505 288.086 75.5126C291.884 80.7323 292.668 86.3474 290.525 92.4918C288.721 97.6623 285.283 101.347 280.817 104.25C280.234 104.629 279.65 105.004 279.076 105.393C279.036 105.419 279.071 105.555 279.071 105.652C279.722 106.083 280.256 105.601 280.771 105.372C284.115 103.882 287.076 101.816 289.297 98.8975C290.67 97.0933 292.397 96.7308 294.411 96.9524C295.621 97.0851 296.816 97.3545 298.183 97.5912C297.324 96.5584 296.195 96.475 295.212 96.1467C294.231 95.8198 293.195 95.6652 292.21 95.2986C294.413 94.8568 296.511 95.4819 298.577 95.9826C300.679 96.4928 302.699 97.3368 304.834 98.0603C304.953 97.5433 304.504 97.3792 304.211 97.189C301.227 95.248 297.998 93.9335 294.465 93.3959C293.993 93.3248 293.539 93.147 292.891 92.9678C294.279 92.195 294.274 92.2237 299.801 93.3959C302.178 93.8993 304.296 94.9403 306.214 96.3546C308.089 97.7389 309.837 99.2969 311.984 101.063C311.005 99.0124 309.757 97.7047 308.358 96.5475C304.693 93.5191 300.513 91.5822 295.821 90.7546C295.092 90.626 294.203 90.8148 293.762 89.9421C294.028 89.0845 294.726 89.2349 295.3 89.3061C298.194 89.6617 301 90.3484 303.633 91.6437C307.639 93.6148 311.061 96.3163 313.855 99.8057C314.511 100.626 315.161 101.453 315.927 102.42C315.983 102.035 316.117 101.758 316.031 101.613C311.829 94.5791 305.963 89.7315 297.85 87.8876C296.755 87.6386 295.617 87.5798 294.502 87.298C296.179 86.8248 297.88 86.8549 299.534 87.298C306.521 89.1706 312.092 93.0882 316.103 99.1232C316.872 100.279 317.336 101.639 317.928 102.909C318.151 103.385 318.285 103.912 318.558 104.354C318.857 104.835 319.354 105.082 319.918 104.82C320.473 104.563 320.978 104.197 321.528 103.922C324.4 102.48 327.388 101.604 330.653 102.104C328.395 102.284 326.187 102.707 324.066 103.507C323.501 103.721 322.943 104.013 322.475 104.385C322.285 104.537 322.255 105.017 322.32 105.311C322.355 105.476 322.749 105.688 322.957 105.663C323.471 105.604 323.977 105.443 324.475 105.285C329.035 103.849 333.671 102.964 338.7 103.35C338.296 103.058 338.037 102.874 337.624 102.576C338.981 102.122 340.099 102.678 341.218 102.935C342.39 103.205 343.532 103.606 344.999 104.042C342.252 101.548 338.327 100.096 332.904 99.5718C328.537 99.1492 324.33 99.8687 320.194 101.886C317.955 96.5352 314.278 92.5014 309.615 89.3416C305.005 86.2174 300 84.2723 294.185 84.5678C294.023 83.9112 293.862 83.3395 293.744 82.7595C292.228 75.2883 287.769 70.1519 280.987 66.9977C274.836 64.1361 268.452 63.8338 261.959 65.7803C261.538 65.9061 261.12 66.0402 260.701 66.1742C260.373 66.2795 260.046 66.3917 259.7 66.5066C259.468 66.3069 259.214 66.1811 259.097 65.9759C254.718 58.3911 248.064 53.8307 239.759 51.5368C231.331 49.2087 223.054 49.7586 214.985 53.1399C209.934 55.256 205.686 58.4321 202.39 62.8394C202.181 63.1198 201.948 63.3838 201.718 63.6491C201.664 63.7121 201.575 63.7435 201.331 63.8981C198.488 63.3113 195.509 62.4974 192.402 62.9228C189.229 63.3578 186.233 64.2811 183.479 65.9471C180.806 67.564 178.574 69.6458 176.784 72.2051C175.006 74.7479 173.904 77.5917 173.217 80.8335C172.442 80.5135 171.89 80.3165 171.368 80.0634C169.487 79.1524 167.493 78.9719 165.45 79.1265C161.207 79.4465 158.111 82.5912 157.858 86.8316C157.811 87.6085 157.79 88.3869 157.758 89.1351C147.937 90.7245 141.596 95.2166 137.277 101.825C137.111 101.815 136.902 101.868 136.787 101.786C133.807 99.6621 130.406 98.918 126.836 98.7839C123.55 98.6608 120.349 99.1902 117.273 100.361C115.365 101.087 113.631 102.122 112.254 103.666C111.986 103.967 111.615 104.316 111.936 104.757C113.464 103.909 114.918 102.95 116.491 102.262C119.275 101.044 122.216 100.622 125.258 101.029C126.126 101.145 127.017 101.1 127.884 101.227C129.271 101.431 130.679 101.598 132.017 101.992C134.245 102.65 136.288 103.651 137.384 105.917C137.479 106.116 137.771 106.221 138.096 106.463C139.728 100.628 143.806 97.0632 148.831 94.3794C152.698 92.314 156.04 91.5384 158.941 92.1362C157.813 92.4179 157.074 92.6122 156.33 92.7873C148.764 94.5655 143.273 99.0356 139.609 105.802C138.65 107.572 137.901 109.44 137.964 111.554C137.985 112.3 137.613 113.059 137.374 113.999C138.724 113.231 138.073 111.892 138.671 110.989C139.338 109.98 139.621 108.724 140.187 107.637C140.713 106.627 141.343 105.66 142.017 104.741C142.69 103.822 143.44 102.952 144.218 102.117C145.058 101.219 145.939 100.353 146.859 99.539C147.689 98.8072 148.519 98.0385 149.776 97.5953C149.707 98.375 149.168 98.5295 148.848 98.84C148.532 99.1451 148.173 99.4036 147.849 99.7004C147.461 100.056 147.079 100.421 146.711 100.8C146.345 101.179 145.991 101.572 145.649 101.972C145.307 102.373 144.978 102.788 144.658 103.208C144.392 103.556 144.095 103.897 143.903 104.285C143.691 104.715 143.107 105.019 143.43 105.768C146.032 103.13 148.436 100.347 151.836 98.7279C155.127 97.1589 158.534 96.1481 162.152 96.0646C162.687 95.233 161.41 94.1168 162.678 93.5109C162.347 91.9665 163.111 90.7615 163.993 89.6617C164.9 88.5305 165.915 87.4622 167.503 87.2228C165.275 88.8588 163.78 91.0296 162.613 93.4589ZM160.167 87.4129C160.219 85.5759 160.748 84.3216 161.738 83.2629C162.805 82.1207 164.166 81.5462 165.691 81.3602C167.277 81.1673 168.036 81.3656 169.508 82.3026C165.417 82.1015 162.627 84.1848 160.167 87.4129ZM162.209 88.6262C161.939 87.8821 162.412 87.4088 162.773 86.9766C163.809 85.7359 165.127 84.8824 166.666 84.3845C168.169 83.8989 168.448 83.9016 170.214 84.3298C166.052 85.4706 166.052 85.4706 162.209 88.6262Z" fill="url(#paint14_linear)"/>
<path d="M258.379 80.6379C259.128 77.5438 258.747 74.5387 257.75 71.5909C256.086 66.6721 252.972 62.8202 248.816 59.8109C243.549 55.9987 237.614 54.0782 231.123 53.7965C225.863 53.568 220.786 54.3313 215.961 56.4884C210.687 58.8466 206.372 62.321 203.523 67.4354C200.783 72.3583 200.248 77.5602 201.674 82.9852C201.735 83.2122 201.907 83.4106 202.016 83.6034C202.637 83.5145 202.439 83.1302 202.399 82.8183C201.341 74.5017 204.034 67.5899 210.31 62.1076C213.822 59.0408 217.994 57.2216 222.538 56.26C230.999 54.4708 238.955 55.7648 246.323 60.3184C250.3 62.7764 253.265 66.1605 255.382 70.3612C257.025 73.6195 258.066 77.0022 258.379 80.6379Z" fill="url(#paint15_linear)"/>
<path d="M256.55 76.176C256.441 75.5632 256.414 75.0543 256.258 74.5879C253.998 67.8416 249.592 62.9269 243.358 59.6126C232.929 54.0687 219.705 55.602 211.154 63.3605C206.556 67.5339 203.8 72.6948 203.133 78.9103C203.063 79.5614 202.875 80.2632 203.526 80.9799C203.747 80.0306 203.937 79.1962 204.132 78.3618C206.329 68.9893 214.401 60.2186 225.377 58.5074C233.561 57.2312 240.819 59.2433 247.294 64.3946C250.95 67.3041 253.703 70.8564 255.626 75.0885C255.769 75.4032 255.964 75.6959 256.147 75.9913C256.181 76.0419 256.279 76.0543 256.55 76.176Z" fill="url(#paint16_linear)"/>
<path d="M252.51 73.0805C251.624 70.4666 249.984 68.5406 248.102 66.8089C239.754 59.1284 226.627 57.4733 216.66 62.8804C212.11 65.3494 208.705 68.9086 206.701 73.733C206.57 74.0503 206.509 74.3991 206.438 74.7384C206.425 74.8013 206.511 74.8861 206.635 75.1227C207.089 74.4402 207.474 73.8082 207.911 73.2118C211.088 68.8785 214.937 65.3056 220.004 63.351C228.268 60.1625 236.216 61.2021 243.783 65.5997C246.456 67.1536 248.774 69.1876 250.924 71.4076C251.456 71.9589 251.981 72.5224 252.51 73.0805Z" fill="url(#paint17_linear)"/>
<path d="M211.593 71.7906C212.063 71.4035 212.542 71.026 213.004 70.6293C217.082 67.129 221.899 65.5464 227.161 64.9103C232.892 64.2182 238.335 65.0403 243.568 67.4285C243.697 67.4874 243.891 67.4026 244.054 67.3834C235.337 59.9559 216.644 62.4427 211.593 71.7906Z" fill="url(#paint18_linear)"/>
<path d="M137.445 109.126C137.464 107.609 136.97 106.664 136.229 105.791C135.12 104.487 133.769 103.514 132.149 103.002C126.137 101.105 120.435 102.298 114.904 104.98C116.09 104.76 117.285 104.58 118.46 104.311C122.105 103.477 125.769 103.421 129.443 104.03C132.318 104.506 134.726 105.853 136.619 108.088C136.834 108.343 137.035 108.609 137.445 109.126Z" fill="url(#paint19_linear)"/>
<path d="M134.335 109.713C133.386 107.103 131.449 105.707 128.971 105.132C125.957 104.432 122.919 104.388 119.894 105.46C120.336 105.496 120.777 105.526 121.218 105.569C123.483 105.785 125.768 105.883 128.007 106.258C129.83 106.563 131.492 107.425 132.968 108.574C133.435 108.938 133.88 109.333 134.335 109.713Z" fill="url(#paint20_linear)"/>
<path d="M161.43 97.4038C156.159 96.1987 147.619 101.551 145.264 106.304C146.179 105.863 146.555 105.162 147.109 104.696C147.714 104.188 148.264 103.615 148.871 103.112C149.41 102.665 149.985 102.26 150.565 101.864C151.218 101.42 151.871 100.971 152.561 100.589C153.25 100.209 153.976 99.8946 154.698 99.5773C155.421 99.2613 156.148 98.9508 156.891 98.6882C157.55 98.4556 158.234 98.2901 158.91 98.1C159.649 97.8935 160.389 97.6924 161.43 97.4038Z" fill="url(#paint21_linear)"/>
<path d="M165.445 93.2195C166.825 92.0965 168.206 90.9748 169.704 89.7561C167.477 89.9503 166.174 91.1814 165.445 93.2195Z" fill="url(#paint22_linear)"/>
</g>
<defs>
<linearGradient id="paint0_linear" x1="148.829" y1="44.1393" x2="-14" y2="44.1393" gradientUnits="userSpaceOnUse">
<stop stop-color="#F8D975"/>
<stop offset="8e-08" stop-color="white"/>
<stop offset="3.3e-07" stop-color="#FFD378"/>
<stop offset="0.9966" stop-color="#9C7B3D"/>
</linearGradient>
<linearGradient id="paint1_linear" x1="150.288" y1="89.3332" x2="69.3947" y2="89.3332" gradientUnits="userSpaceOnUse">
<stop stop-color="#F8D975"/>
<stop offset="8e-08" stop-color="white"/>
<stop offset="3.3e-07" stop-color="#FFD378"/>
<stop offset="0.9966" stop-color="#9C7B3D"/>
</linearGradient>
<linearGradient id="paint2_linear" x1="75.1145" y1="56.7825" x2="42.2275" y2="56.7825" gradientUnits="userSpaceOnUse">
<stop stop-color="#F8D975"/>
<stop offset="8e-08" stop-color="white"/>
<stop offset="3.3e-07" stop-color="#FFD378"/>
<stop offset="0.9966" stop-color="#9C7B3D"/>
</linearGradient>
<linearGradient id="paint3_linear" x1="72.4544" y1="56.6824" x2="44.7861" y2="56.6824" gradientUnits="userSpaceOnUse">
<stop stop-color="#F8D975"/>
<stop offset="8e-08" stop-color="white"/>
<stop offset="3.3e-07" stop-color="#FFD378"/>
<stop offset="0.9966" stop-color="#9C7B3D"/>
</linearGradient>
<linearGradient id="paint4_linear" x1="39.4986" y1="73.3959" x2="16.7027" y2="73.3959" gradientUnits="userSpaceOnUse">
<stop stop-color="#F8D975"/>
<stop offset="8e-08" stop-color="white"/>
<stop offset="3.3e-07" stop-color="#FFD378"/>
<stop offset="0.9966" stop-color="#9C7B3D"/>
</linearGradient>
<linearGradient id="paint5_linear" x1="13.7781" y1="81.107" x2="-10.7558" y2="81.107" gradientUnits="userSpaceOnUse">
<stop stop-color="#F8D975"/>
<stop offset="8e-08" stop-color="white"/>
<stop offset="3.3e-07" stop-color="#FFD378"/>
<stop offset="0.9966" stop-color="#9C7B3D"/>
</linearGradient>
<linearGradient id="paint6_linear" x1="97.1703" y1="85.0354" x2="76.9092" y2="85.0354" gradientUnits="userSpaceOnUse">
<stop stop-color="#F8D975"/>
<stop offset="8e-08" stop-color="white"/>
<stop offset="3.3e-07" stop-color="#FFD378"/>
<stop offset="0.9966" stop-color="#9C7B3D"/>
</linearGradient>
<linearGradient id="paint7_linear" x1="36.2375" y1="74.4807" x2="20.1075" y2="74.4807" gradientUnits="userSpaceOnUse">
<stop stop-color="#F8D975"/>
<stop offset="8e-08" stop-color="white"/>
<stop offset="3.3e-07" stop-color="#FFD378"/>
<stop offset="0.9966" stop-color="#9C7B3D"/>
</linearGradient>
<linearGradient id="paint8_linear" x1="144.208" y1="77.0994" x2="130.285" y2="77.0994" gradientUnits="userSpaceOnUse">
<stop stop-color="#F8D975"/>
<stop offset="8e-08" stop-color="white"/>
<stop offset="3.3e-07" stop-color="#FFD378"/>
<stop offset="0.9966" stop-color="#9C7B3D"/>
</linearGradient>
<linearGradient id="paint9_linear" x1="97.3956" y1="82.786" x2="86.6449" y2="82.786" gradientUnits="userSpaceOnUse">
<stop stop-color="#F8D975"/>
<stop offset="8e-08" stop-color="white"/>
<stop offset="3.3e-07" stop-color="#FFD378"/>
<stop offset="0.9966" stop-color="#9C7B3D"/>
</linearGradient>
<linearGradient id="paint10_linear" x1="140.886" y1="78.7957" x2="131.784" y2="78.7957" gradientUnits="userSpaceOnUse">
<stop stop-color="#F8D975"/>
<stop offset="8e-08" stop-color="white"/>
<stop offset="3.3e-07" stop-color="#FFD378"/>
<stop offset="0.9966" stop-color="#9C7B3D"/>
</linearGradient>
<linearGradient id="paint11_linear" x1="53.1254" y1="48.1196" x2="9.9727" y2="48.1196" gradientUnits="userSpaceOnUse">
<stop stop-color="#F8D975"/>
<stop offset="8e-08" stop-color="white"/>
<stop offset="3.3e-07" stop-color="#FFD378"/>
<stop offset="0.9966" stop-color="#9C7B3D"/>
</linearGradient>
<linearGradient id="paint12_linear" x1="50.326" y1="47.6835" x2="12.0829" y2="47.6835" gradientUnits="userSpaceOnUse">
<stop stop-color="#F8D975"/>
<stop offset="8e-08" stop-color="white"/>
<stop offset="3.3e-07" stop-color="#FFD378"/>
<stop offset="0.9966" stop-color="#9C7B3D"/>
</linearGradient>
<linearGradient id="paint13_linear" x1="46.8592" y1="48.5103" x2="14.194" y2="48.5103" gradientUnits="userSpaceOnUse">
<stop stop-color="#F8D975"/>
<stop offset="8e-08" stop-color="white"/>
<stop offset="3.3e-07" stop-color="#FFD378"/>
<stop offset="0.9966" stop-color="#9C7B3D"/>
</linearGradient>
<linearGradient id="paint14_linear" x1="345" y1="82.0612" x2="111.815" y2="82.0612" gradientUnits="userSpaceOnUse">
<stop stop-color="#F8D975"/>
<stop offset="8e-08" stop-color="white"/>
<stop offset="3.3e-07" stop-color="#FFD378"/>
<stop offset="0.9966" stop-color="#9C7B3D"/>
</linearGradient>
<linearGradient id="paint15_linear" x1="258.772" y1="68.6801" x2="200.908" y2="68.6801" gradientUnits="userSpaceOnUse">
<stop stop-color="#F8D975"/>
<stop offset="8e-08" stop-color="white"/>
<stop offset="3.3e-07" stop-color="#FFD378"/>
<stop offset="0.9966" stop-color="#9C7B3D"/>
</linearGradient>
<linearGradient id="paint16_linear" x1="256.551" y1="68.641" x2="203.054" y2="68.641" gradientUnits="userSpaceOnUse">
<stop stop-color="#F8D975"/>
<stop offset="8e-08" stop-color="white"/>
<stop offset="3.3e-07" stop-color="#FFD378"/>
<stop offset="0.9966" stop-color="#9C7B3D"/>
</linearGradient>
<linearGradient id="paint17_linear" x1="252.51" y1="67.4177" x2="206.435" y2="67.4177" gradientUnits="userSpaceOnUse">
<stop stop-color="#F8D975"/>
<stop offset="8e-08" stop-color="white"/>
<stop offset="3.3e-07" stop-color="#FFD378"/>
<stop offset="0.9966" stop-color="#9C7B3D"/>
</linearGradient>
<linearGradient id="paint18_linear" x1="244.052" y1="67.412" x2="211.593" y2="67.412" gradientUnits="userSpaceOnUse">
<stop stop-color="#F8D975"/>
<stop offset="8e-08" stop-color="white"/>
<stop offset="3.3e-07" stop-color="#FFD378"/>
<stop offset="0.9966" stop-color="#9C7B3D"/>
</linearGradient>
<linearGradient id="paint19_linear" x1="137.445" y1="105.601" x2="114.903" y2="105.601" gradientUnits="userSpaceOnUse">
<stop stop-color="#F8D975"/>
<stop offset="8e-08" stop-color="white"/>
<stop offset="3.3e-07" stop-color="#FFD378"/>
<stop offset="0.9966" stop-color="#9C7B3D"/>
</linearGradient>
<linearGradient id="paint20_linear" x1="134.335" y1="107.17" x2="119.894" y2="107.17" gradientUnits="userSpaceOnUse">
<stop stop-color="#F8D975"/>
<stop offset="8e-08" stop-color="white"/>
<stop offset="3.3e-07" stop-color="#FFD378"/>
<stop offset="0.9966" stop-color="#9C7B3D"/>
</linearGradient>
<linearGradient id="paint21_linear" x1="161.43" y1="101.768" x2="145.265" y2="101.768" gradientUnits="userSpaceOnUse">
<stop stop-color="#F8D975"/>
<stop offset="8e-08" stop-color="white"/>
<stop offset="3.3e-07" stop-color="#FFD378"/>
<stop offset="0.9966" stop-color="#9C7B3D"/>
</linearGradient>
<linearGradient id="paint22_linear" x1="169.704" y1="91.4876" x2="165.444" y2="91.4876" gradientUnits="userSpaceOnUse">
<stop stop-color="#F8D975"/>
<stop offset="8e-08" stop-color="white"/>
<stop offset="3.3e-07" stop-color="#FFD378"/>
<stop offset="0.9966" stop-color="#9C7B3D"/>
</linearGradient>
</defs>
</svg>
