<svg width="345" height="114" viewBox="0 0 345 114" fill="none" xmlns="http://www.w3.org/2000/svg">
<g opacity="0.5">
<path d="M286.342 40.2341C286.701 39.5817 286.987 38.8731 287.432 38.285C289.951 34.9501 293.026 32.2281 296.629 30.1079C297.16 29.796 297.695 29.491 298.354 29.1094C298.037 28.6251 297.791 28.1628 297.466 27.7648C293.451 22.8432 288.578 19.1787 282.344 17.5441C278.542 16.547 274.704 16.5647 270.895 17.4087C267.722 18.1104 265.199 20.0788 262.682 22.0075C262.314 22.2892 261.99 22.6257 261.418 22.7652C261.617 22.4712 261.778 22.1415 262.02 21.8898C266.707 17.0189 272.419 14.8495 279.153 15.4978C286.377 16.1927 292.111 19.7642 296.985 24.9183C298.022 26.0139 298.955 27.208 299.983 28.4118C300.359 28.2476 300.723 28.0903 301.063 27.9412C301.031 27.7224 301.053 27.5692 300.987 27.4775C296.203 20.7641 290.136 15.8165 281.975 13.8304C275.99 12.3736 270.403 13.3407 265.184 16.6646C259.944 20.0022 256.761 24.8334 254.743 30.5661C254.677 30.7549 254.621 30.9464 254.309 31.0818C254.432 30.5374 254.535 29.9862 254.68 29.4472C255.796 25.3177 257.745 21.619 260.74 18.5659C267.453 11.7253 275.536 10.2247 284.475 12.9714C291.487 15.1258 296.898 19.6233 301.347 25.3519C301.768 25.8949 302.18 26.4461 302.598 26.9919C302.639 27.0453 302.699 27.0808 302.945 27.2915C303.636 27.1588 304.484 26.996 305.406 26.8182C305.339 26.5036 305.354 26.2888 305.257 26.1575C299.785 18.7766 292.959 13.2135 284.034 10.5434C278.695 8.94578 273.335 8.80626 268.017 10.7021C265.056 11.7581 262.42 13.3653 260.238 15.6291C255.453 20.5945 252.465 26.4229 251.953 33.3935C251.851 34.7655 251.764 36.1388 251.445 37.5709C251.347 37.0347 251.163 36.4985 251.163 35.9623C251.172 30.5169 252.136 25.2794 254.759 20.4454C260.032 10.7267 269.685 6.92409 279.097 8.0129C286.748 8.89927 293.236 12.2984 299.035 17.1885C301.89 19.5946 304.401 22.333 306.573 25.3669C307.21 26.2574 307.89 26.7334 309.111 26.2464C309.063 26.0331 309.071 25.7636 308.952 25.5735C302.973 16.0586 294.871 9.2727 283.866 6.35369C278.148 4.83674 272.412 4.91607 266.823 7.03215C259.565 9.78154 254.68 14.9657 251.976 22.1607C249.245 29.4253 248.773 36.8952 250.478 44.4855C250.522 44.6811 250.51 44.8876 250.532 45.209C249.902 44.5634 249.846 43.8138 249.688 43.1039C249.524 42.3666 249.306 41.6389 249.171 40.8976C247.969 34.34 248.163 27.8509 250.597 21.5944C254.465 11.6541 261.701 5.69302 272.293 4.16512C278.711 3.23908 284.895 4.46331 290.77 7.2004C298.93 11.0017 305.238 16.8752 310.036 24.4368C310.368 24.9593 310.628 25.5406 311.027 26.003C311.238 26.2478 311.677 26.2971 312.336 26.5665C312.142 25.8716 312.084 25.4845 311.93 25.1412C306.276 12.5829 296.841 4.54128 283.204 2.20635C271.513 0.205173 261.412 3.69321 253.614 12.8688C249.24 18.016 247.126 24.1358 246.623 30.8411C246.073 38.1796 247.938 45.0216 250.868 51.6448C251.384 52.813 251.962 53.9524 252.4 55.167C250.549 53.4025 249.66 51.0074 248.249 48.8175C246.01 50.2688 244.562 52.2166 243.6 54.5542C242.652 56.8605 242.628 59.3062 242.607 61.7601C241.409 59.0189 241.642 56.3065 242.633 53.594C243.607 50.9281 245.359 48.8653 247.606 47.3046C247.506 46.4716 247.034 46.3307 246.578 46.6644C245.533 47.4277 244.425 48.1746 243.589 49.1416C241.729 51.2946 240.921 53.9319 240.701 56.7319C240.445 59.9764 240.599 63.1895 241.945 66.3739C239.731 64.396 238.629 59.1161 239.498 54.6076C240.34 50.2523 242.552 46.8354 246.747 44.811C246.624 44.4335 246.524 44.1298 246.389 43.7167C246.035 43.7714 245.68 43.7468 245.401 43.8809C240.538 46.2172 237.697 50.0102 237.358 55.4557C237.117 59.3021 237.787 62.998 239.769 66.3807C239.942 66.6735 240.063 66.9963 240.196 67.3109C240.212 67.3506 240.143 67.4272 240.052 67.6063C238.522 66.14 237.655 64.3249 236.914 62.4454C236.123 60.4429 235.685 58.3555 235.746 56.1957C235.804 54.1152 236.211 52.0962 237.061 50.1853C237.941 48.2088 239.115 46.4032 240.828 45.0832C242.427 43.8508 244.191 42.8344 246.114 41.5705C245.602 41.4611 245.262 41.2669 245.036 41.3572C239.504 43.5854 235.725 47.3949 234.541 53.3902C233.698 57.6511 234.732 61.5837 236.997 65.2222C239.129 68.6473 241.674 71.688 245.161 73.8328C245.39 73.9737 245.589 74.1666 245.728 74.5332C245.27 74.3663 244.79 74.2432 244.358 74.0257C241.553 72.6195 239.095 70.7469 237.153 68.2807C236.466 67.408 235.718 67.0797 234.68 67.2165C234.476 67.2439 234.266 67.2343 234.063 67.274C228.969 68.2698 221.642 72.5457 221.643 80.6789C221.643 80.9949 221.602 81.3109 221.55 82.0359C220.94 81.0195 220.95 80.2946 221.005 79.5587C221.474 73.231 226.784 67.2192 233.033 65.9444C233.617 65.8254 234.203 65.7091 235.052 65.5381C233.348 65.0457 232.526 65.0143 230.883 65.4998C224.574 67.3656 220.738 71.5772 219.261 77.9473C218.764 80.0894 218.664 82.2752 219.05 84.4542C217.395 79.4055 218.284 74.7315 221.321 70.4693C224.313 66.2672 228.461 63.9446 233.623 63.3742C231.625 62.8503 229.743 63.2183 227.88 63.8324C222.566 65.5846 215.818 72.2913 216.402 81.0223C216.516 82.7089 217.1 84.3708 217.533 86.0259C217.721 86.7427 218.075 87.4156 218.16 88.2774C217.894 87.9683 217.579 87.6892 217.372 87.3445C215.285 83.8578 214.931 80.0908 215.688 76.1828C216.23 73.3896 217.434 70.8591 219.002 68.4585C217.505 69.1643 216.798 70.6375 215.563 71.6812C215.803 71.0055 216.045 70.3311 216.361 69.4447C213.542 68.8689 210.97 69.1862 208.522 70.4228C205.518 71.9383 202.952 73.9655 201.3 76.983C200.61 78.2455 199.924 79.5108 199.245 80.7583C199.122 78.132 201.797 73.5182 204.977 70.9207C208.237 68.2574 212 67.2781 216.339 67.739C214.979 66.9156 213.741 66.6844 211.81 66.9799C208.211 67.5311 205.124 69.152 202.762 71.9055C199.615 75.5768 197.498 79.783 196.816 84.6348C196.771 84.9603 196.652 85.2763 196.292 85.621C196.251 85.4158 196.172 85.2107 196.173 85.0069C196.222 79.1702 198.151 74.0845 202.321 69.9413C204.564 67.713 207.229 66.2193 210.345 65.5272C212.766 64.9883 215.124 65.136 217.465 65.8951C217.852 66.021 218.24 66.1359 218.737 66.2905C222.515 62.351 227.043 59.8137 232.716 59.2911C231.76 49.474 236.176 43.041 245.288 39.3409C245.213 38.3574 245.151 37.2809 245.047 36.2072C244.344 28.9972 245.723 22.1962 249.396 15.9725C254.743 6.91451 262.782 1.75632 273.164 0.321441C288.585 -1.81105 304.242 6.8639 311.744 20.8448C312.748 22.716 313.563 24.6885 314.511 26.7101C314.818 26.8141 315.197 26.9769 315.592 27.0685C322.189 28.6142 327.335 32.3143 331.289 37.7296C334.73 42.4446 336.667 47.7615 337.382 53.5379C337.475 54.2889 337.56 55.0412 337.664 55.7908C337.692 55.9878 337.78 56.1752 337.834 56.3489C347.365 58.1203 352.658 66.7938 350.351 77.2552C353.323 78.4562 356.287 79.8213 359 82.2534C357.836 82.3532 357.285 81.7883 356.672 81.4491C351.613 78.6491 346.19 77.3291 340.424 77.552C336.157 77.7162 332.109 78.7024 328.654 81.3916C327.632 82.1863 326.704 83.1028 325.713 83.9796C325.996 82.6952 326.293 82.159 327.684 80.854C328.576 80.0183 329.554 79.2742 330.649 78.3591C329.737 77.1854 328.922 76.0009 327.97 74.938C324.28 70.8167 319.799 68.0263 314.288 67.066C311.458 66.5722 308.673 66.7829 305.946 67.7267C305.109 68.0167 304.581 68.4954 304.273 69.3668C303.635 71.1765 302.877 72.9437 301.561 74.6549C301.337 73.6796 301.849 73.0956 302.084 72.454C303.762 67.869 304.548 63.1936 303.948 58.2817C302.491 46.384 291.326 38.9538 279.089 43.2982C273.488 45.2856 269.239 48.9406 265.815 53.6829C265.378 54.2889 264.937 54.8921 264.27 55.3941C264.374 55.0303 264.415 54.6322 264.591 54.3067C268.979 46.1734 275.575 41.2573 284.929 40.3696C285.406 40.3244 285.882 40.2601 286.358 40.2054C286.971 40.2848 287.585 40.3614 288.198 40.4421C295.705 41.4283 301.048 45.3486 304.098 52.2904C305.506 55.494 305.972 58.8863 305.727 62.3743C305.647 63.5247 305.534 64.6737 305.424 65.9772C305.967 65.8637 306.35 65.7939 306.728 65.7009C310.942 64.6737 315.048 65.0484 319.066 66.6311C323.937 68.5502 327.835 71.7168 330.953 75.8846C331.391 76.4701 331.816 77.0664 332.198 77.5917C338.708 75.5481 338.708 75.5481 348.416 76.5467C349.11 74.8833 349.336 73.6441 349.22 71.5526C348.807 64.0677 343.687 59.1256 338.267 58.3596C338.159 58.3446 338.035 58.4567 337.843 58.5429C337.843 58.8343 337.843 59.1585 337.843 59.4662C345.355 62.6342 348.433 67.0182 347.438 73.4881C347.034 71.8918 346.843 70.5294 346.337 69.297C345.821 68.0413 345.103 66.828 344.273 65.7529C343.443 64.6791 342.441 63.6984 341.371 62.8626C340.359 62.072 339.23 61.3142 337.763 61.5782C339.519 62.5247 341.219 63.4987 342.443 65.1141C343.685 66.7528 344.628 68.516 344.892 70.6006C344.192 69.8346 343.655 68.9824 343.125 68.1234C341.901 66.14 340.257 64.623 338.133 63.6519C337.968 63.5766 337.739 63.6423 337.452 63.6423C337.381 64.0964 337.311 64.5451 337.248 64.9404C340.075 66.6324 340.819 67.46 341.305 69.5432C339.851 68.4763 338.794 67.051 336.989 66.6338C336.027 68.9687 335.788 71.5608 334.238 73.6317C334.095 73.3486 334.049 73.0914 334.101 72.8575C334.476 71.1833 334.9 69.52 335.253 67.8416C336.443 62.1828 336.54 56.5322 335.239 50.8597C334.066 45.7425 332.005 41.0726 328.596 37.058C324.013 31.6591 318.201 28.5089 311.101 28.1423C304.592 27.8072 298.785 30.1175 293.59 33.8312C290.981 35.6942 288.746 38.0825 286.342 40.2341ZM232.961 61.4551C232.932 61.3347 232.903 61.213 232.875 61.0926C232.384 61.135 231.894 61.1774 231.403 61.2212C231.41 61.2992 231.417 61.3771 231.425 61.4565C231.937 61.4551 232.449 61.4551 232.961 61.4551Z" fill="url(#paint0_linear)"/>
<path d="M212.195 96.6405C213.37 95.7268 214.544 94.813 215.805 93.8323C215.645 93.6367 215.519 93.3987 215.325 93.2578C211.771 90.6726 207.8 88.9942 203.561 87.9396C201.185 87.3473 198.789 87.4129 196.419 88.0859C195.977 88.2118 195.514 88.2569 194.712 88.4019C196.185 86.9602 197.755 86.7919 199.293 86.6374C202.779 86.2858 206.142 86.8631 209.402 88.116C212.376 89.2596 215.096 90.8476 217.715 92.8693C222.449 90.6876 227.449 89.5386 232.67 89.7233C237.924 89.9093 242.868 91.1841 247.008 94.8527C250.463 88.9833 255.674 85.5937 261.766 83.3627C265.955 81.828 271.655 81.0333 275.604 82.0783C274.813 82.1713 274.357 82.2794 273.901 82.2698C270.121 82.1919 266.535 82.9647 263.121 84.6047C261.822 85.2285 260.443 85.6853 259.14 86.3009C256.257 87.6619 253.58 89.3676 251.449 91.76C250.363 92.9788 249.472 94.389 248.607 95.7842C247.674 97.2889 247.159 97.4735 245.951 96.2917C243.057 93.4643 239.46 92.236 235.58 91.6848C231.652 91.1267 227.755 91.4098 223.929 92.4453C221.941 92.9829 219.928 93.4876 218.018 94.2386C216.115 94.9854 214.326 96.0209 212.488 96.9291C212.392 96.832 212.294 96.7363 212.195 96.6405Z" fill="url(#paint1_linear)"/>
<path d="M269.886 51.4342C272.984 47.425 277.181 45.2474 281.972 44.1038C284.482 43.5047 287.046 43.3926 289.556 43.8549C296.467 45.1284 300.515 49.4768 302.218 56.1492C303.384 60.7247 302.573 65.1579 301.072 69.5186C301.031 69.6363 300.928 69.7375 300.838 69.8319C300.794 69.877 300.713 69.8852 300.436 69.996C300.69 68.4791 300.969 67.0825 301.154 65.6736C301.634 62.0173 301.49 58.4294 300.287 54.8785C297.754 47.4086 290.897 44.32 284.443 45.2132C279.351 45.9176 274.805 47.8819 270.672 50.887C270.414 51.0731 270.148 51.2523 269.886 51.4342Z" fill="url(#paint2_linear)"/>
<path d="M298.894 66.8143C298.929 66.1646 298.918 65.5094 299.007 64.8665C299.388 62.087 299.05 59.3801 298.178 56.7374C296.044 50.277 290.509 47.1117 283.627 48.0487C279.123 48.6629 277.099 49.5287 272.546 51.8924C273.067 51.4178 273.539 50.8692 274.117 50.4794C278.156 47.7628 282.527 46.2035 287.489 46.5304C294.333 46.9804 300.075 52.7788 300.212 59.6304C300.25 61.5372 299.92 63.4563 299.704 65.3631C299.645 65.8787 299.383 66.3712 299.215 66.8745C299.106 66.8554 299.001 66.8349 298.894 66.8143Z" fill="url(#paint3_linear)"/>
<path d="M328.297 78.7626C322.157 71.5485 314.832 68.2561 305.502 69.5405C306.707 68.3915 308.088 68.1863 309.42 68.0878C314.958 67.6816 319.877 69.3777 324.188 72.8028C325.812 74.0927 327.019 75.7943 327.971 77.6505C328.082 77.8694 328.115 78.1279 328.297 78.7626Z" fill="url(#paint4_linear)"/>
<path d="M355.756 83.4708C347.637 79.322 339.599 79.229 331.222 82.2506C336.504 76.9406 351.873 77.909 355.756 83.4708Z" fill="url(#paint5_linear)"/>
<path d="M268.091 79.545C260.398 81.6228 253.011 83.8866 247.83 90.5467C247.922 90.2253 247.951 89.8683 248.114 89.5892C250.038 86.2913 252.652 83.7334 256.158 82.1426C259.119 80.7994 262.169 79.7653 265.442 79.5546C266.321 79.4958 267.208 79.545 268.091 79.545Z" fill="url(#paint6_linear)"/>
<path d="M324.893 78.0581C320.223 74.1461 314.862 72.0396 308.762 71.7305C310.417 70.6567 312.913 70.6335 316.127 71.6292C319.794 72.7646 323.039 74.4634 324.893 78.0581Z" fill="url(#paint7_linear)"/>
<path d="M200.793 83.4913C201.726 75.9613 208.332 69.9742 214.716 70.7812C212.602 71.6566 210.568 72.3843 208.639 73.3268C206.704 74.272 205.251 75.8628 203.888 77.5015C202.483 79.188 201.596 81.1632 200.793 83.4913Z" fill="url(#paint8_linear)"/>
<path d="M247.605 86.4869C249.522 81.6133 253.227 79.2893 258.356 79.0854C257.051 79.6887 255.697 80.2057 254.457 80.9211C253.214 81.6392 252.032 82.4914 250.92 83.4038C249.755 84.3585 248.704 85.4528 247.605 86.4869Z" fill="url(#paint9_linear)"/>
<path d="M204.148 83.6021C203.698 78.3222 207.795 73.9286 213.217 73.9888C210.979 75.1419 208.772 75.8833 207.216 77.6738C205.708 79.4082 204.804 81.4341 204.148 83.6021Z" fill="url(#paint10_linear)"/>
<path d="M333.991 66.8663C333.991 66.0798 333.959 65.4068 333.996 64.7393C334.298 59.1831 333.48 53.7609 331.875 48.4659C330.325 43.3556 327.646 38.9087 323.422 35.5465C317.826 31.0914 311.483 29.9287 304.576 31.5236C300.53 32.4579 296.683 33.875 293.197 36.1812C292.871 36.396 292.506 36.5505 291.875 36.8829C292.03 36.4452 292.037 36.2469 292.138 36.1662C297.271 32.0667 303.017 29.4773 309.673 29.3775C317.425 29.2612 323.636 32.4675 328.41 38.4984C331.592 42.5171 333.412 47.1624 334.375 52.1591C335.189 56.3804 335.146 60.6371 334.769 64.898C334.721 65.441 334.569 65.9772 334.436 66.5093C334.412 66.6065 334.244 66.6694 333.991 66.8663Z" fill="url(#paint11_linear)"/>
<path d="M294.674 37.0361C296.774 35.1881 299.233 34.0692 301.824 33.2184C305.808 31.9094 309.87 31.4703 314.006 32.3321C320.145 33.611 324.686 37.1565 327.984 42.3913C330.945 47.0926 332.301 52.3083 332.77 57.7852C332.894 59.2214 332.9 60.6686 332.918 62.1103C332.924 62.5658 332.79 63.024 332.463 63.4823C332.4 63.0377 332.301 62.5945 332.278 62.1472C331.961 55.8154 330.516 49.7941 327.356 44.2447C324.441 39.1262 320.333 35.4521 314.536 33.979C310.178 32.871 305.809 33.0885 301.533 34.4919C299.45 35.1758 297.41 35.9938 295.353 36.7543C295.124 36.8392 294.901 36.9417 294.674 37.0361Z" fill="url(#paint12_linear)"/>
<path d="M298.141 37.1278C303.959 34.7532 309.933 34.0296 316.007 35.9801C319.635 37.1455 322.633 39.3136 324.961 42.3311C329.361 48.0392 330.668 54.6746 330.807 62.1637C330.041 61.1145 329.991 60.3348 329.87 59.5839C329.272 55.9112 328.39 52.3219 326.989 48.8585C324.083 41.6718 318.809 37.5532 311.179 36.2633C307.146 35.5821 303.241 36.1839 299.317 36.9322C298.927 37.0074 298.533 37.0635 298.141 37.1278Z" fill="url(#paint13_linear)"/>
<path d="M182.387 93.4589C182.337 93.7926 182.287 94.1264 182.202 94.7009C181.413 93.4671 180.815 92.4111 180.098 91.4426C178.615 89.436 176.683 88.1721 174.098 88.1502C172.062 88.1324 171.605 88.4498 170.856 90.4605C168.788 96.0058 164.906 99.6881 159.367 101.663C158.98 101.801 158.549 101.819 158.045 101.748C163.923 98.5733 167.959 94.0443 169.302 87.3787C170.196 82.9387 169.355 78.8242 167.171 74.9312C163.035 67.5599 153.446 63.0391 145.058 66.2727C144.982 66.9388 145.247 67.2849 145.943 67.17C146.288 67.1126 146.624 66.9977 146.962 66.8992C152.585 65.2536 157.592 66.5928 161.982 70.2504C167.536 74.8779 169.701 82.2315 167.564 89.0927C166.567 92.2948 164.675 94.8965 161.84 96.7568C161.699 96.8498 161.533 96.9141 161.371 96.9592C161.315 96.9743 161.23 96.8867 161.082 96.8019C161.662 96.0592 162.213 95.3027 162.815 94.5901C164.805 92.2333 165.87 89.4497 166.381 86.4732C168.038 76.8175 159.957 67.196 150.053 68.1043C148.68 68.2301 147.278 68.3655 145.927 69.5337C146.397 69.7211 146.693 69.9604 146.932 69.9139C147.963 69.7115 148.964 69.3162 150.001 69.189C152.711 68.8566 155.237 69.5104 157.586 70.8714C164.107 74.6508 167.12 83.4106 164.307 90.4031C163.59 92.1868 162.86 93.1853 161.414 94.3206C161.276 93.515 161.797 92.9528 162.035 92.3372C163.094 89.5892 163.625 86.7673 163.448 83.8196C163.18 79.3289 161.22 75.7082 157.625 73.0696C154.87 71.0479 151.761 70.3325 148.39 71.3584C148.141 71.4336 147.902 71.5554 147.675 71.6867C147.531 71.7701 147.42 71.9083 147.085 72.2106C147.657 72.2543 148.025 72.346 148.374 72.2981C156.167 71.2572 161.819 75.5276 162.759 83.3176C163.194 86.9219 162.306 90.2991 160.375 93.3836C160.262 93.5642 160.019 93.6654 159.427 94.1141C159.731 93.2824 159.855 92.8939 160.013 92.5192C160.947 90.2964 161.296 87.9779 161.338 85.5732C161.391 82.5187 160.32 79.8733 158.54 77.5055C156.19 74.3814 152.153 73.0983 148.402 74.168C148.022 74.276 147.68 74.5209 147.386 75.0653C147.668 75.0858 147.962 75.1733 148.227 75.1173C149.975 74.7452 151.727 74.644 153.438 75.2089C155.709 75.9585 157.398 77.4563 158.563 79.5272C160.037 82.1494 160.446 84.9823 160.097 87.9409C160.056 88.2843 159.922 88.6208 159.802 88.9504C159.717 89.1843 159.583 89.3991 159.423 89.715C159.222 87.8657 159.074 86.1367 158.839 84.4173C158.527 82.1412 157.31 80.2973 155.752 78.7147C153.435 76.3634 150.789 76.0269 147.565 77.5001C147.057 79.7105 146.635 81.9456 146.014 84.1246C145.408 86.2489 144.333 88.1817 143.068 89.9941C141.762 91.8667 140.311 93.608 138.544 95.0237C137.993 94.6243 138.291 94.3384 138.477 94.0826C139.047 93.3016 139.62 92.5205 140.225 91.7668C142.178 89.3348 143.475 86.5621 144.511 83.6445C145.826 79.9417 145.667 76.2499 144.644 72.506C142.59 64.9896 137.955 59.5538 131.046 56.2272C119.521 50.6778 108.086 51.1155 97.0402 57.6552C92.7963 60.168 89.5398 63.7107 87.4377 68.2479C85.0442 73.4143 84.8842 78.7722 86.018 84.2422C86.4817 86.4814 87.1765 88.6495 88.4566 90.7792C86.9029 89.8409 85.739 87.9833 84.545 84.7867C83.6765 82.4613 83.2485 80.0498 83.098 77.5411C82.1447 76.4906 80.8454 76.1938 79.5557 76.0132C76.8176 75.6302 74.1274 75.8573 71.5205 76.8818C69.3801 77.723 67.3997 78.8324 65.5219 80.1565C63.35 81.6885 61.9071 83.7252 61.1603 86.2544C60.8389 87.3404 60.6105 88.4539 60.2385 89.9654C59.9841 88.6057 60.0128 87.6537 60.2207 86.6811C60.6132 84.8496 61.3573 83.1876 62.4117 81.6378C66.2727 75.9585 75.1353 72.227 81.982 74.7726C82.2241 74.8628 82.4935 74.8779 82.7438 74.9258C83.2088 74.1023 83.1924 73.7111 82.5591 73.547C80.8646 73.1093 79.1632 72.5648 77.4344 72.4226C73.9413 72.1367 70.6288 72.967 67.5488 74.659C66.9333 74.9969 66.3425 75.3826 65.7366 75.7396C60.9976 78.5205 58.8694 82.8511 58.4154 88.153C58.3333 89.105 58.4031 90.0707 58.2485 91.0186C57.246 87.1093 57.6372 83.349 59.7106 79.8637C63.004 74.3266 68.0029 71.3926 74.3325 70.7333C77.0528 70.4501 79.7786 70.6307 82.4087 71.5472C82.7164 71.6539 83.0748 71.6224 83.4098 71.6333C83.4796 71.6361 83.5507 71.5362 83.7942 71.3584C83.4522 71.0889 83.1897 70.7675 82.8518 70.6334C80.3558 69.6404 77.7271 69.3942 75.0806 69.4721C67.5556 69.6964 61.8113 73.0491 57.8628 79.4643C56.1778 82.2014 55.8291 85.2421 55.9699 88.3554C56.0657 90.4728 56.5403 92.5328 57.4334 94.4779C57.6071 94.8568 57.7425 95.2535 57.9052 95.6666C57.3171 95.9675 57.1913 95.5134 57.0791 95.3082C53.7023 89.1638 53.6709 83.0221 57.4046 77.05C60.5134 72.0765 65.221 69.323 70.8682 68.1179C73.8128 67.4901 76.7861 67.3082 79.7691 67.9784C80.2409 68.0837 80.7579 67.9935 81.6537 67.9935C72.9785 65.0922 62.1245 68.3505 56.9137 75.5126C53.1156 80.7323 52.3319 86.3474 54.4751 92.4918C56.279 97.6623 59.7174 101.347 64.1829 104.25C64.7655 104.629 65.3495 105.004 65.924 105.393C65.9636 105.419 65.9294 105.555 65.9294 105.652C65.2784 106.083 64.7437 105.601 64.2294 105.372C60.8854 103.882 57.9244 101.816 55.7032 98.8975C54.3301 97.0933 52.6027 96.7308 50.5895 96.9524C49.3791 97.0851 48.1837 97.3545 46.8174 97.5912C47.6763 96.5584 48.8046 96.475 49.788 96.1467C50.7686 95.8198 51.8053 95.6652 52.7901 95.2986C50.5867 94.8568 48.4887 95.4819 46.4235 95.9826C44.3214 96.4928 42.3013 97.3368 40.1663 98.0603C40.0473 97.5433 40.4959 97.3792 40.7886 97.189C43.7729 95.248 47.002 93.9335 50.5348 93.3959C51.0066 93.3248 51.4607 93.147 52.109 92.9678C50.7208 92.195 50.7262 92.2237 45.1994 93.3959C42.8224 93.8993 40.7038 94.9403 38.7863 96.3546C36.9112 97.7389 35.1633 99.2969 33.0161 101.063C33.9953 99.0124 35.2426 97.7047 36.6418 96.5475C40.3072 93.5191 44.4868 91.5822 49.1794 90.7546C49.9084 90.626 50.7974 90.8148 51.2377 89.9421C50.9724 89.0845 50.2735 89.2349 49.7005 89.3061C46.8064 89.6617 43.9999 90.3484 41.3671 91.6437C37.3612 93.6148 33.9392 96.3163 31.1451 99.8057C30.4886 100.626 29.8389 101.453 29.073 102.42C29.0169 102.035 28.8829 101.758 28.9691 101.613C33.1706 94.5791 39.0366 89.7315 47.1497 87.8876C48.2452 87.6386 49.3832 87.5798 50.4978 87.298C48.821 86.8248 47.1196 86.8549 45.4661 87.298C38.4786 89.1706 32.908 93.0882 28.8966 99.1232C28.1279 100.279 27.6643 101.639 27.0721 102.909C26.8492 103.385 26.7151 103.912 26.4416 104.354C26.1434 104.835 25.6456 105.082 25.0821 104.82C24.5268 104.563 24.0221 104.197 23.4723 103.922C20.6002 102.48 17.6118 101.604 14.3471 102.104C16.6052 102.284 18.8126 102.707 20.9339 103.507C21.4988 103.721 22.0568 104.013 22.5245 104.385C22.7146 104.537 22.7447 105.017 22.6804 105.311C22.6449 105.476 22.251 105.688 22.0431 105.663C21.5289 105.604 21.0228 105.443 20.525 105.285C15.9651 103.849 11.3286 102.964 6.29966 103.35C6.7045 103.058 6.96299 102.874 7.37603 102.576C6.01929 102.122 4.90052 102.678 3.78175 102.935C2.60964 103.205 1.46763 103.606 0.00146484 104.042C2.74778 101.548 6.67304 100.096 12.0959 99.5718C16.4629 99.1492 20.6699 99.8687 24.8058 101.886C27.0447 96.5352 30.7224 92.5014 35.3849 89.3416C39.9954 86.2174 44.9997 84.2723 50.8151 84.5678C50.9765 83.9112 51.1379 83.3395 51.2555 82.7595C52.7723 75.2883 57.231 70.1519 64.0133 66.9977C70.1638 64.1361 76.5482 63.8338 83.0406 65.7803C83.4618 65.9061 83.8803 66.0402 84.2988 66.1742C84.6271 66.2795 84.954 66.3917 85.3 66.5066C85.5325 66.3069 85.7855 66.1811 85.9031 65.9759C90.2825 58.3911 96.9363 53.8307 105.241 51.5368C113.669 49.2087 121.946 49.7586 130.015 53.1399C135.066 55.256 139.314 58.4321 142.61 62.8394C142.819 63.1198 143.052 63.3838 143.282 63.6491C143.336 63.7121 143.425 63.7435 143.669 63.8981C146.512 63.3113 149.491 62.4974 152.598 62.9228C155.771 63.3578 158.767 64.2811 161.521 65.9471C164.194 67.564 166.426 69.6458 168.216 72.2051C169.994 74.7479 171.096 77.5917 171.783 80.8335C172.558 80.5135 173.11 80.3165 173.632 80.0634C175.513 79.1524 177.507 78.9719 179.55 79.1265C183.793 79.4465 186.889 82.5912 187.142 86.8316C187.189 87.6085 187.21 88.3869 187.242 89.1351C197.063 90.7245 203.404 95.2166 207.723 101.825C207.889 101.815 208.098 101.868 208.213 101.786C211.193 99.6621 214.594 98.918 218.164 98.7839C221.45 98.6608 224.651 99.1902 227.727 100.361C229.635 101.087 231.369 102.122 232.746 103.666C233.014 103.967 233.385 104.316 233.064 104.757C231.536 103.909 230.082 102.95 228.509 102.262C225.725 101.044 222.784 100.622 219.742 101.029C218.874 101.145 217.983 101.1 217.116 101.227C215.729 101.431 214.321 101.598 212.983 101.992C210.755 102.65 208.712 103.651 207.616 105.917C207.521 106.116 207.229 106.221 206.904 106.463C205.272 100.628 201.194 97.0632 196.169 94.3794C192.302 92.314 188.96 91.5384 186.059 92.1362C187.187 92.4179 187.926 92.6122 188.67 92.7873C196.236 94.5655 201.727 99.0356 205.391 105.802C206.35 107.572 207.099 109.44 207.036 111.554C207.015 112.3 207.387 113.059 207.626 113.999C206.276 113.231 206.927 111.892 206.329 110.989C205.662 109.98 205.379 108.724 204.813 107.637C204.287 106.627 203.657 105.66 202.983 104.741C202.31 103.822 201.56 102.952 200.782 102.117C199.942 101.219 199.061 100.353 198.141 99.539C197.311 98.8072 196.481 98.0385 195.224 97.5953C195.293 98.375 195.832 98.5295 196.152 98.84C196.468 99.1451 196.827 99.4036 197.151 99.7004C197.539 100.056 197.921 100.421 198.289 100.8C198.655 101.179 199.009 101.572 199.351 101.972C199.693 102.373 200.022 102.788 200.342 103.208C200.608 103.556 200.905 103.897 201.097 104.285C201.309 104.715 201.893 105.019 201.57 105.768C198.968 103.13 196.564 100.347 193.164 98.7279C189.873 97.1589 186.466 96.1481 182.848 96.0646C182.313 95.233 183.59 94.1168 182.322 93.5109C182.653 91.9665 181.889 90.7615 181.007 89.6617C180.1 88.5305 179.085 87.4622 177.497 87.2228C179.725 88.8588 181.22 91.0296 182.387 93.4589ZM184.833 87.4129C184.781 85.5759 184.252 84.3216 183.262 83.2629C182.195 82.1207 180.834 81.5462 179.309 81.3602C177.723 81.1673 176.964 81.3656 175.492 82.3026C179.583 82.1015 182.373 84.1848 184.833 87.4129ZM182.791 88.6262C183.061 87.8821 182.588 87.4088 182.227 86.9766C181.191 85.7359 179.873 84.8824 178.334 84.3845C176.831 83.8989 176.552 83.9016 174.786 84.3298C178.948 85.4706 178.948 85.4706 182.791 88.6262Z" fill="url(#paint14_linear)"/>
<path d="M86.6213 80.6379C85.8718 77.5438 86.2534 74.5387 87.2504 71.5909C88.9135 66.6721 92.0278 62.8202 96.1842 59.8109C101.451 55.9987 107.386 54.0782 113.877 53.7965C119.137 53.568 124.214 54.3313 129.039 56.4884C134.313 58.8466 138.628 62.321 141.477 67.4354C144.217 72.3583 144.752 77.5602 143.326 82.9852C143.265 83.2122 143.093 83.4106 142.984 83.6034C142.363 83.5145 142.561 83.1302 142.601 82.8183C143.659 74.5017 140.966 67.5899 134.69 62.1076C131.178 59.0408 127.006 57.2216 122.462 56.26C114.001 54.4708 106.045 55.7648 98.6775 60.3184C94.7002 62.7764 91.7351 66.1605 89.6179 70.3612C87.9753 73.6195 86.9345 77.0022 86.6213 80.6379Z" fill="url(#paint15_linear)"/>
<path d="M88.4497 76.176C88.5591 75.5632 88.5865 75.0543 88.7424 74.5879C91.0018 67.8416 95.4085 62.9269 101.642 59.6126C112.071 54.0687 125.295 55.602 133.846 63.3605C138.444 67.5339 141.2 72.6948 141.867 78.9103C141.937 79.5614 142.125 80.2632 141.474 80.9799C141.253 80.0306 141.063 79.1962 140.868 78.3618C138.671 68.9893 130.599 60.2186 119.623 58.5074C111.439 57.2312 104.181 59.2433 97.7062 64.3946C94.0504 67.3041 91.2972 70.8564 89.3743 75.0885C89.2306 75.4032 89.0364 75.6959 88.8532 75.9913C88.819 76.0419 88.7205 76.0543 88.4497 76.176Z" fill="url(#paint16_linear)"/>
<path d="M92.4897 73.0805C93.376 70.4666 95.0159 68.5406 96.8978 66.8089C105.246 59.1284 118.373 57.4733 128.34 62.8804C132.89 65.3494 136.295 68.9086 138.299 73.733C138.43 74.0503 138.491 74.3991 138.562 74.7384C138.575 74.8013 138.489 74.8861 138.365 75.1227C137.911 74.4402 137.526 73.8082 137.089 73.2118C133.912 68.8785 130.063 65.3056 124.996 63.351C116.732 60.1625 108.784 61.2021 101.217 65.5997C98.5445 67.1536 96.2263 69.1876 94.0763 71.4076C93.5442 71.9589 93.019 72.5224 92.4897 73.0805Z" fill="url(#paint17_linear)"/>
<path d="M133.407 71.7906C132.937 71.4035 132.458 71.026 131.996 70.6293C127.918 67.129 123.101 65.5464 117.839 64.9103C112.108 64.2182 106.665 65.0403 101.432 67.4285C101.303 67.4874 101.109 67.4026 100.946 67.3834C109.663 59.9559 128.356 62.4427 133.407 71.7906Z" fill="url(#paint18_linear)"/>
<path d="M207.555 109.126C207.536 107.609 208.029 106.664 208.771 105.791C209.88 104.487 211.231 103.514 212.851 103.002C218.863 101.105 224.565 102.298 230.096 104.98C228.91 104.76 227.714 104.58 226.54 104.311C222.895 103.477 219.231 103.421 215.557 104.03C212.682 104.506 210.274 105.853 208.381 108.088C208.166 108.343 207.965 108.609 207.555 109.126Z" fill="url(#paint19_linear)"/>
<path d="M210.665 109.713C211.614 107.103 213.551 105.707 216.029 105.132C219.043 104.432 222.081 104.388 225.106 105.46C224.665 105.496 224.223 105.526 223.782 105.569C221.517 105.785 219.232 105.883 216.993 106.258C215.17 106.563 213.508 107.425 212.033 108.574C211.565 108.938 211.12 109.333 210.665 109.713Z" fill="url(#paint20_linear)"/>
<path d="M183.57 97.4038C188.841 96.1987 197.381 101.551 199.736 106.304C198.821 105.863 198.445 105.162 197.891 104.696C197.286 104.188 196.736 103.615 196.129 103.112C195.59 102.665 195.014 102.26 194.435 101.864C193.782 101.42 193.128 100.971 192.439 100.589C191.75 100.209 191.024 99.8946 190.301 99.5773C189.579 99.2613 188.852 98.9508 188.109 98.6882C187.45 98.4556 186.766 98.2901 186.09 98.1C185.35 97.8935 184.611 97.6924 183.57 97.4038Z" fill="url(#paint21_linear)"/>
<path d="M179.555 93.2195C178.175 92.0965 176.794 90.9748 175.297 89.7561C177.523 89.9503 178.827 91.1814 179.555 93.2195Z" fill="url(#paint22_linear)"/>
</g>
<defs>
<linearGradient id="paint0_linear" x1="196.171" y1="44.1393" x2="359" y2="44.1393" gradientUnits="userSpaceOnUse">
<stop stop-color="#F8D975"/>
<stop offset="8e-08" stop-color="white"/>
<stop offset="3.3e-07" stop-color="#FFD378"/>
<stop offset="0.9966" stop-color="#9C7B3D"/>
</linearGradient>
<linearGradient id="paint1_linear" x1="194.712" y1="89.3332" x2="275.605" y2="89.3332" gradientUnits="userSpaceOnUse">
<stop stop-color="#F8D975"/>
<stop offset="8e-08" stop-color="white"/>
<stop offset="3.3e-07" stop-color="#FFD378"/>
<stop offset="0.9966" stop-color="#9C7B3D"/>
</linearGradient>
<linearGradient id="paint2_linear" x1="269.885" y1="56.7825" x2="302.773" y2="56.7825" gradientUnits="userSpaceOnUse">
<stop stop-color="#F8D975"/>
<stop offset="8e-08" stop-color="white"/>
<stop offset="3.3e-07" stop-color="#FFD378"/>
<stop offset="0.9966" stop-color="#9C7B3D"/>
</linearGradient>
<linearGradient id="paint3_linear" x1="272.546" y1="56.6824" x2="300.214" y2="56.6824" gradientUnits="userSpaceOnUse">
<stop stop-color="#F8D975"/>
<stop offset="8e-08" stop-color="white"/>
<stop offset="3.3e-07" stop-color="#FFD378"/>
<stop offset="0.9966" stop-color="#9C7B3D"/>
</linearGradient>
<linearGradient id="paint4_linear" x1="305.502" y1="73.3959" x2="328.297" y2="73.3959" gradientUnits="userSpaceOnUse">
<stop stop-color="#F8D975"/>
<stop offset="8e-08" stop-color="white"/>
<stop offset="3.3e-07" stop-color="#FFD378"/>
<stop offset="0.9966" stop-color="#9C7B3D"/>
</linearGradient>
<linearGradient id="paint5_linear" x1="331.222" y1="81.107" x2="355.756" y2="81.107" gradientUnits="userSpaceOnUse">
<stop stop-color="#F8D975"/>
<stop offset="8e-08" stop-color="white"/>
<stop offset="3.3e-07" stop-color="#FFD378"/>
<stop offset="0.9966" stop-color="#9C7B3D"/>
</linearGradient>
<linearGradient id="paint6_linear" x1="247.83" y1="85.0354" x2="268.091" y2="85.0354" gradientUnits="userSpaceOnUse">
<stop stop-color="#F8D975"/>
<stop offset="8e-08" stop-color="white"/>
<stop offset="3.3e-07" stop-color="#FFD378"/>
<stop offset="0.9966" stop-color="#9C7B3D"/>
</linearGradient>
<linearGradient id="paint7_linear" x1="308.763" y1="74.4807" x2="324.893" y2="74.4807" gradientUnits="userSpaceOnUse">
<stop stop-color="#F8D975"/>
<stop offset="8e-08" stop-color="white"/>
<stop offset="3.3e-07" stop-color="#FFD378"/>
<stop offset="0.9966" stop-color="#9C7B3D"/>
</linearGradient>
<linearGradient id="paint8_linear" x1="200.792" y1="77.0994" x2="214.715" y2="77.0994" gradientUnits="userSpaceOnUse">
<stop stop-color="#F8D975"/>
<stop offset="8e-08" stop-color="white"/>
<stop offset="3.3e-07" stop-color="#FFD378"/>
<stop offset="0.9966" stop-color="#9C7B3D"/>
</linearGradient>
<linearGradient id="paint9_linear" x1="247.604" y1="82.786" x2="258.355" y2="82.786" gradientUnits="userSpaceOnUse">
<stop stop-color="#F8D975"/>
<stop offset="8e-08" stop-color="white"/>
<stop offset="3.3e-07" stop-color="#FFD378"/>
<stop offset="0.9966" stop-color="#9C7B3D"/>
</linearGradient>
<linearGradient id="paint10_linear" x1="204.113" y1="78.7957" x2="213.216" y2="78.7957" gradientUnits="userSpaceOnUse">
<stop stop-color="#F8D975"/>
<stop offset="8e-08" stop-color="white"/>
<stop offset="3.3e-07" stop-color="#FFD378"/>
<stop offset="0.9966" stop-color="#9C7B3D"/>
</linearGradient>
<linearGradient id="paint11_linear" x1="291.875" y1="48.1196" x2="335.027" y2="48.1196" gradientUnits="userSpaceOnUse">
<stop stop-color="#F8D975"/>
<stop offset="8e-08" stop-color="white"/>
<stop offset="3.3e-07" stop-color="#FFD378"/>
<stop offset="0.9966" stop-color="#9C7B3D"/>
</linearGradient>
<linearGradient id="paint12_linear" x1="294.674" y1="47.6835" x2="332.917" y2="47.6835" gradientUnits="userSpaceOnUse">
<stop stop-color="#F8D975"/>
<stop offset="8e-08" stop-color="white"/>
<stop offset="3.3e-07" stop-color="#FFD378"/>
<stop offset="0.9966" stop-color="#9C7B3D"/>
</linearGradient>
<linearGradient id="paint13_linear" x1="298.141" y1="48.5103" x2="330.806" y2="48.5103" gradientUnits="userSpaceOnUse">
<stop stop-color="#F8D975"/>
<stop offset="8e-08" stop-color="white"/>
<stop offset="3.3e-07" stop-color="#FFD378"/>
<stop offset="0.9966" stop-color="#9C7B3D"/>
</linearGradient>
<linearGradient id="paint14_linear" x1="9.7157e-05" y1="82.0612" x2="233.185" y2="82.0612" gradientUnits="userSpaceOnUse">
<stop stop-color="#F8D975"/>
<stop offset="8e-08" stop-color="white"/>
<stop offset="3.3e-07" stop-color="#FFD378"/>
<stop offset="0.9966" stop-color="#9C7B3D"/>
</linearGradient>
<linearGradient id="paint15_linear" x1="86.2276" y1="68.6801" x2="144.092" y2="68.6801" gradientUnits="userSpaceOnUse">
<stop stop-color="#F8D975"/>
<stop offset="8e-08" stop-color="white"/>
<stop offset="3.3e-07" stop-color="#FFD378"/>
<stop offset="0.9966" stop-color="#9C7B3D"/>
</linearGradient>
<linearGradient id="paint16_linear" x1="88.4491" y1="68.641" x2="141.946" y2="68.641" gradientUnits="userSpaceOnUse">
<stop stop-color="#F8D975"/>
<stop offset="8e-08" stop-color="white"/>
<stop offset="3.3e-07" stop-color="#FFD378"/>
<stop offset="0.9966" stop-color="#9C7B3D"/>
</linearGradient>
<linearGradient id="paint17_linear" x1="92.4902" y1="67.4177" x2="138.565" y2="67.4177" gradientUnits="userSpaceOnUse">
<stop stop-color="#F8D975"/>
<stop offset="8e-08" stop-color="white"/>
<stop offset="3.3e-07" stop-color="#FFD378"/>
<stop offset="0.9966" stop-color="#9C7B3D"/>
</linearGradient>
<linearGradient id="paint18_linear" x1="100.948" y1="67.412" x2="133.407" y2="67.412" gradientUnits="userSpaceOnUse">
<stop stop-color="#F8D975"/>
<stop offset="8e-08" stop-color="white"/>
<stop offset="3.3e-07" stop-color="#FFD378"/>
<stop offset="0.9966" stop-color="#9C7B3D"/>
</linearGradient>
<linearGradient id="paint19_linear" x1="207.555" y1="105.601" x2="230.097" y2="105.601" gradientUnits="userSpaceOnUse">
<stop stop-color="#F8D975"/>
<stop offset="8e-08" stop-color="white"/>
<stop offset="3.3e-07" stop-color="#FFD378"/>
<stop offset="0.9966" stop-color="#9C7B3D"/>
</linearGradient>
<linearGradient id="paint20_linear" x1="210.665" y1="107.17" x2="225.106" y2="107.17" gradientUnits="userSpaceOnUse">
<stop stop-color="#F8D975"/>
<stop offset="8e-08" stop-color="white"/>
<stop offset="3.3e-07" stop-color="#FFD378"/>
<stop offset="0.9966" stop-color="#9C7B3D"/>
</linearGradient>
<linearGradient id="paint21_linear" x1="183.569" y1="101.768" x2="199.735" y2="101.768" gradientUnits="userSpaceOnUse">
<stop stop-color="#F8D975"/>
<stop offset="8e-08" stop-color="white"/>
<stop offset="3.3e-07" stop-color="#FFD378"/>
<stop offset="0.9966" stop-color="#9C7B3D"/>
</linearGradient>
<linearGradient id="paint22_linear" x1="175.296" y1="91.4876" x2="179.556" y2="91.4876" gradientUnits="userSpaceOnUse">
<stop stop-color="#F8D975"/>
<stop offset="8e-08" stop-color="white"/>
<stop offset="3.3e-07" stop-color="#FFD378"/>
<stop offset="0.9966" stop-color="#9C7B3D"/>
</linearGradient>
</defs>
</svg>
