<svg width="20" height="20" viewBox="0 0 20 20" fill="none" xmlns="http://www.w3.org/2000/svg">
<path d="M16.6666 10V18.3333H3.33325V10" stroke="#DBC087" stroke-width="1.6" stroke-linecap="round" stroke-linejoin="round"/>
<path d="M18.3334 5.83337H1.66675V10H18.3334V5.83337Z" stroke="#DBC087" stroke-width="1.6" stroke-linecap="round" stroke-linejoin="round"/>
<path d="M10 18.3334V5.83337" stroke="#DBC087" stroke-width="1.6" stroke-linecap="round" stroke-linejoin="round"/>
<path d="M10.0001 5.83329H6.25008C5.69755 5.83329 5.16764 5.6138 4.77694 5.2231C4.38624 4.8324 4.16675 4.30249 4.16675 3.74996C4.16675 3.19742 4.38624 2.66752 4.77694 2.27682C5.16764 1.88612 5.69755 1.66663 6.25008 1.66663C9.16675 1.66663 10.0001 5.83329 10.0001 5.83329Z" stroke="#DBC087" stroke-width="1.6" stroke-linecap="round" stroke-linejoin="round"/>
<path d="M10 5.83329H13.75C14.3025 5.83329 14.8324 5.6138 15.2231 5.2231C15.6138 4.8324 15.8333 4.30249 15.8333 3.74996C15.8333 3.19742 15.6138 2.66752 15.2231 2.27682C14.8324 1.88612 14.3025 1.66663 13.75 1.66663C10.8333 1.66663 10 5.83329 10 5.83329Z" stroke="#DBC087" stroke-width="1.6" stroke-linecap="round" stroke-linejoin="round"/>
</svg>
