<svg width="37" height="114" viewBox="0 0 37 114" fill="none" xmlns="http://www.w3.org/2000/svg">
<g clip-path="url(#clip0)">
<path d="M6.98777 43.6589C6.98638 42.0884 7.26617 40.6104 8.10969 39.2991C8.59448 38.5356 9.20669 37.9949 9.87984 37.7385C10.7067 37.4205 11.7179 37.4919 12.729 37.943C16.4535 39.6017 17.1211 43.9166 17.6599 47.384C17.7347 47.8687 17.8081 48.3422 17.8871 48.7961C18.1198 50.1284 18.5201 51.4495 18.9065 52.7285C19.3442 54.1701 19.7943 55.6607 20.0173 57.1947C20.0478 57.4217 20.0797 57.6514 20.1683 57.8322C20.2791 58.0619 20.5063 58.2566 20.7473 58.4626C22.2473 59.7472 23.4718 61.3639 24.3001 63.1669C24.4524 63.499 24.7682 64.0733 24.2807 64.2863C24.1214 64.3563 23.7266 64.4236 23.6463 64.2176C23.6214 64.1518 23.6449 64.0537 23.6214 63.9781C23.584 63.8562 23.5175 63.7371 23.4662 63.6208C23.2598 63.1669 23.0272 62.7256 22.7709 62.2998C22.257 61.448 21.6448 60.6565 20.9495 59.949C20.7057 59.701 20.4509 59.4628 20.1877 59.2359C19.847 58.9445 19.5187 58.6629 19.322 58.2566C19.1655 57.9386 19.1184 57.601 19.0838 57.3306C18.8733 55.8736 18.4314 54.4181 18.0048 53.0115C17.6101 51.7058 17.2014 50.3553 16.9591 48.9656C16.8787 48.5061 16.8039 48.027 16.7291 47.5353C16.2014 44.1296 15.6031 40.2686 12.3509 38.8214C11.8979 38.6197 11.0198 38.3269 10.2178 38.6365C9.60698 38.8676 9.16791 39.4084 8.90612 39.8217C7.5792 41.8839 7.86315 44.5667 8.30361 47.3671C8.71914 49.9953 9.19007 52.9751 9.90478 55.8106C10.01 56.2225 10.1208 56.6344 10.2303 57.0476C10.625 58.52 11.0336 60.0428 11.1915 61.5993C11.3425 63.0815 11.3148 64.5749 11.2843 66.0192C11.2358 68.4639 11.1915 70.7712 11.9409 73.0436C12.5738 74.967 13.826 77.1777 15.6585 79.614C16.11 80.2136 16.6072 80.7992 17.0893 81.3665C17.6876 82.0726 18.3068 82.8025 18.858 83.58C19.624 84.6601 20.2625 85.865 20.5575 87.1678C20.5991 87.3513 20.6337 87.5349 20.66 87.7212C20.678 87.8473 20.7611 88.1373 20.6919 88.2479C20.667 88.2886 20.6268 88.3166 20.5866 88.3418C20.5215 88.3838 20.4509 88.4231 20.3733 88.4287C20.3096 88.4329 20.2459 88.4133 20.1863 88.3866C19.6531 88.1457 19.6683 87.4368 19.5229 86.9479C19.34 86.3343 19.0741 85.7473 18.7611 85.1911C18.5561 84.8283 18.3303 84.4766 18.0907 84.1362C17.5643 83.3937 16.9577 82.6792 16.3718 81.9885C15.8815 81.41 15.3759 80.8132 14.9077 80.1911C13.0102 77.6709 11.7109 75.3677 11.0447 73.3434C10.2441 70.9141 10.2954 68.4148 10.3411 65.9968C10.3702 64.5819 10.3979 63.1165 10.2538 61.6931C10.1028 60.2138 9.70532 58.7288 9.32027 57.2928C9.20807 56.8767 9.09727 56.4606 8.99061 56.0432C8.26482 53.1656 7.78974 50.162 7.37144 47.5142C7.1609 46.1946 6.98777 44.8973 6.98777 43.6589Z" fill="#B59D66"/>
<path d="M15.2679 7.70376C15.2679 7.03692 15.3136 6.37427 15.405 5.72143C15.567 4.56286 15.8524 3.60462 16.2748 2.79207C16.7818 1.81842 17.5283 0.980657 18.4356 0.369847L18.9827 -4.72876e-07L19.1531 0.643031C20.5908 6.04365 23.1546 11.681 25.2142 16.2103C25.4095 16.6376 25.6062 17.0648 25.8043 17.4907C26.7087 19.4422 27.6423 21.4596 28.2545 23.5764C29.1825 26.7803 29.3654 30.1048 29.4955 33.8061C29.5523 35.4382 29.6036 37.0716 29.6479 38.7051C29.6922 40.3428 29.7296 41.9791 29.7601 43.6168C29.7684 44.0904 29.7767 44.5639 29.785 45.0374C29.7892 45.2741 29.792 45.5109 29.7961 45.7463C29.7989 45.913 29.8197 46.1848 29.7449 46.3347C29.7019 46.4201 29.6202 46.4804 29.5316 46.5126C29.4429 46.5448 29.3473 46.5532 29.2532 46.5546C29.1562 46.556 29.0551 46.5518 28.972 46.5028C28.8224 46.4159 28.8612 46.2562 28.8584 46.1091C28.8556 45.9046 28.8529 45.7014 28.8487 45.4969C28.8418 45.0878 28.8349 44.6801 28.8279 44.2711C28.8127 43.4529 28.7975 42.6334 28.7795 41.8152C28.7434 40.1761 28.7005 38.537 28.652 36.8979C28.6216 35.878 28.5883 34.8568 28.5523 33.8369C28.4263 30.2014 28.2476 26.9401 27.35 23.8426C26.7572 21.7958 25.8375 19.8121 24.9497 17.8928C24.7516 17.4641 24.5522 17.0354 24.3569 16.6053C22.3679 12.2316 19.9121 6.83238 18.4287 1.56625C17.8912 2.03136 17.4411 2.59874 17.1114 3.23197C16.7402 3.94644 16.4881 4.80382 16.3413 5.85172C16.1114 7.47681 16.1903 9.18175 16.5685 10.783C17.2458 13.6564 17.9716 16.2719 18.7846 18.7768C18.8719 19.0444 18.9578 19.3175 19.0422 19.5935C19.3442 20.5658 19.6572 21.5703 20.1005 22.4472C20.214 22.6714 20.3719 22.918 20.5381 23.1757C20.9371 23.8006 21.39 24.5094 21.4565 25.2071C21.5077 25.8739 21.2349 26.6375 20.9842 27.3113C20.8886 27.5691 20.7958 27.817 20.7334 28.037C20.1794 29.9885 19.6794 31.9834 19.25 33.9672C18.3746 38.0103 17.7541 42.1472 17.4065 46.2604L16.466 46.1791C16.8164 42.024 17.4425 37.8478 18.3275 33.764C18.7611 31.7607 19.2652 29.7447 19.8262 27.7736C19.8955 27.5313 19.9966 27.2595 20.1005 26.9751C20.3138 26.3979 20.5575 25.7451 20.516 25.2982C20.473 24.8316 20.0866 24.2278 19.7459 23.6955C19.5617 23.4083 19.3871 23.1323 19.2611 22.8829C18.7819 21.9345 18.4577 20.8894 18.1433 19.8807C18.0588 19.6103 17.9757 19.34 17.8899 19.0766C17.0685 16.5451 16.3358 13.9057 15.6515 11.0058C15.3967 9.93546 15.2679 8.81611 15.2679 7.70376Z" fill="#B59D66"/>
<path d="M23.7557 113.64C23.7557 113.594 23.7599 113.545 23.7585 113.494C23.7266 112.519 24.1186 111.468 24.3651 110.526C24.6449 109.458 24.9483 108.395 25.271 107.34C25.9469 105.124 26.7046 102.934 27.5315 100.771C29.1659 96.4953 31.0538 92.3022 33.2921 88.3138C34.1578 86.7713 34.7049 83.8742 35.1453 81.5472C35.3295 80.5736 35.5027 79.6546 35.6827 78.9191C36.4265 75.858 35.9071 72.521 35.4473 69.5748C34.8849 65.9674 34.3115 63.4037 33.7589 60.9226C33.2007 58.4247 32.6245 55.8428 32.0566 52.2004C31.7976 50.5389 31.6078 48.7737 31.425 47.0659C30.943 42.5549 30.4429 37.8898 28.6008 34.0302L29.4512 33.6155C31.3654 37.6236 31.8737 42.3714 32.3641 46.9637C32.5538 48.7372 32.7325 50.4128 32.9901 52.0519C33.5525 55.6635 34.1259 58.23 34.6813 60.7125C35.2381 63.2075 35.8143 65.7881 36.3822 69.4263C36.8545 72.4608 37.3892 75.9015 36.6011 79.146C36.4279 79.8563 36.2576 80.7641 36.0747 81.7252C35.5983 84.2468 35.0567 87.1048 34.1148 88.7831C34.1051 88.7999 34.0954 88.8181 34.0857 88.8349C31.8488 92.8304 29.9637 97.0318 28.3362 101.316C27.5162 103.476 26.7641 105.664 26.0965 107.879C25.7793 108.931 25.4815 109.991 25.2073 111.055C25.0757 111.567 24.9497 112.079 24.8292 112.593C24.771 112.841 24.6809 113.106 24.674 113.36C24.6671 113.566 24.7931 113.805 24.5535 113.943C24.4773 113.986 24.3873 113.992 24.3 113.996C24.1311 114.004 23.9372 114.001 23.8277 113.871C23.7626 113.798 23.7543 113.721 23.7557 113.64Z" fill="#B59D66"/>
<path d="M13.0226 17.6714C13.0323 17.6364 13.0448 17.6014 13.06 17.5692C13.0767 17.5341 13.096 17.5005 13.1265 17.4753C13.175 17.4347 13.2415 17.4263 13.3038 17.4291C13.5019 17.4347 13.6972 17.5299 13.8246 17.6826C14.0961 18.0091 14.0421 18.6787 14.1155 19.0878C14.2014 19.5613 14.308 20.0306 14.434 20.4943C14.6944 21.4442 15.0366 22.3702 15.4341 23.271C16.0047 24.5613 16.689 25.7955 17.4231 26.9975C17.6225 27.3239 19.8415 30.7562 19.8775 30.731L19.1032 31.2774C17.7694 29.3371 16.4563 27.3701 15.3648 25.2771C14.7277 24.0541 14.1667 22.7877 13.7457 21.4708C13.5393 20.825 13.3661 20.1665 13.2346 19.5011C13.1681 19.1676 13.1127 18.8314 13.0683 18.4952C13.0351 18.2388 12.9534 17.9292 13.0226 17.6714Z" fill="#B59D66"/>
<path d="M7.13598 12.2064C7.16923 12.1321 7.21771 12.0635 7.2828 12.0018C7.33267 11.9542 7.39638 11.9136 7.46425 11.9192C7.51134 11.9234 7.5529 11.9472 7.59307 11.9738C8.08062 12.3002 8.14295 12.9461 8.41304 13.442C8.70945 13.987 9.08066 14.4857 9.44909 14.9816C10.7982 16.7959 12.5254 18.5933 14.1875 19.9115L13.6044 20.6638C11.855 19.2755 10.1112 17.4627 8.69422 15.556C8.28561 15.0069 7.8784 14.4507 7.55428 13.8441C7.33544 13.4308 6.91021 12.7023 7.13598 12.2064Z" fill="#B59D66"/>
<path d="M1.22025 5.57572C1.22025 5.16244 1.2618 4.75757 1.34352 4.36251C1.48896 3.67184 2.00837 1.39812 2.65244 1.14455L2.89067 1.05069L3.17739 1.2104C5.58745 2.95456 7.7385 5.00694 9.81891 6.99207C12.0946 9.16352 14.4479 11.4092 17.0893 13.1828L16.5671 13.9785C13.8592 12.1601 11.4755 9.88641 9.17069 7.68693C7.20939 5.81528 5.18439 3.88339 2.95854 2.23028C2.71753 2.79766 2.3768 4.03469 2.26738 4.56144C1.82415 6.67826 2.935 8.89875 3.94473 10.3893C5.09851 12.0929 7.03626 14.0878 9.01417 14.5753L8.79117 15.5042C5.97527 14.8107 3.77298 11.8281 3.16631 10.9301C1.87124 9.01642 1.22025 7.22182 1.22025 5.57572Z" fill="#B59D66"/>
<path d="M-1.97073e-06 9.70292C-1.95952e-06 9.44654 0.0138511 9.19297 0.0415535 8.94221L0.117731 8.25294L0.727171 8.57096C1.70089 9.0795 2.67046 9.61606 3.60678 10.1638L3.13446 10.9918C2.41837 10.5729 1.68427 10.1624 0.943246 9.76456C0.955711 11.1277 1.41695 12.5776 2.27155 13.9197C3.07906 15.189 4.1996 16.363 5.90188 17.7261C6.76756 18.4196 7.81054 19.1971 8.99341 19.7098C9.15824 19.7813 9.41171 19.8359 9.65687 19.8891C10.0724 19.9788 10.5004 20.0727 10.8134 20.287C11.1722 20.535 11.3813 20.9412 11.5655 21.2999C11.632 21.4302 11.6971 21.5563 11.7664 21.6669C13.2567 24.0093 15.0629 25.64 16.851 26.2578L16.5449 27.1614C14.5559 26.475 12.578 24.7056 10.9727 22.1839C10.8882 22.0508 10.8079 21.8981 10.7275 21.7398C10.5877 21.4694 10.445 21.1878 10.2815 21.0757C10.1223 20.9651 9.76906 20.8894 9.46018 20.8222C9.1707 20.7591 8.87152 20.6947 8.62359 20.5882C7.33684 20.032 6.23015 19.2083 5.31599 18.4756C3.52922 17.0438 2.34634 15.7984 1.47928 14.4381C0.512481 12.9223 -2.03913e-06 11.2678 -1.97073e-06 9.70292Z" fill="#B59D66"/>
<path d="M1.83525 2.52588C1.83525 2.48666 1.83663 2.44743 1.83802 2.4082L2.78126 2.45443C2.75218 3.12829 3.21064 3.79653 3.61648 4.29667C4.29933 5.13583 4.92539 5.66399 5.58608 5.95678C6.37697 6.30842 7.23849 6.2832 7.8327 5.89374L8.34518 6.69648C7.48781 7.25825 6.28417 7.31009 5.20518 6.83237C4.40459 6.47653 3.66772 5.86432 2.88653 4.90468C2.39344 4.29667 1.83525 3.48412 1.83525 2.52588Z" fill="#B59D66"/>
<path d="M17.5464 4.1482C17.5464 3.30063 17.7694 2.47127 17.9868 1.66153C18.0755 1.32951 18.1655 0.996085 18.2375 0.664062L19.16 0.87C19.0838 1.21743 18.991 1.56487 18.8982 1.9123C18.6115 2.98122 18.3414 3.99129 18.5907 4.96635C18.9287 6.28183 20.1517 7.54687 21.3748 7.84667L21.1518 8.7755C19.5949 8.39304 18.1018 6.85901 17.6766 5.20731C17.5838 4.85007 17.5464 4.49703 17.5464 4.1482Z" fill="#B59D66"/>
<path d="M7.61523 41.9791C7.61523 41.147 7.62077 40.3204 8.07924 39.5961C8.11525 39.5387 8.15542 39.4813 8.21221 39.4434C8.25653 39.414 8.30639 39.3972 8.35764 39.3846C8.43798 39.365 8.52524 39.3538 8.60003 39.3874C8.80641 39.4799 8.66375 39.9772 8.64851 40.1565C8.61804 40.4885 8.59726 40.822 8.58203 41.154C8.55848 41.6401 8.45183 42.2831 8.6028 42.7567C9.26488 44.117 10.017 45.4801 10.8286 46.7899C10.8314 46.7956 10.8342 46.7998 10.837 46.804L13.1916 46.0587C13.3814 45.9984 13.5794 45.934 13.7041 45.8345C13.8398 45.7266 13.9396 45.5431 14.0282 45.3596C14.8953 43.5692 14.8427 41.3711 13.8897 39.6242C13.8897 39.6242 14.1252 39.4911 14.1404 39.4841C14.254 39.421 14.3967 39.3524 14.5269 39.4056C14.5947 39.4336 14.6446 39.4911 14.6931 39.5457C14.8717 39.7544 15.0961 39.966 15.1875 40.2294C15.2734 40.4801 15.3468 40.7351 15.405 40.9943C15.5227 41.5168 15.5837 42.052 15.5878 42.5885C15.5948 43.6883 15.3579 44.7922 14.8787 45.7799C14.7471 46.0517 14.5739 46.3599 14.29 46.5854C14.0296 46.7942 13.7221 46.8922 13.4756 46.9707L11.132 47.716C11.0073 47.7552 10.7774 47.8294 10.5253 47.744C10.2469 47.6515 10.0987 47.4134 10.0281 47.2985C9.19978 45.9606 8.43244 44.5681 7.74681 43.1587C7.64986 42.964 7.61523 42.5101 7.61523 41.9791Z" fill="#B59D66"/>
<path d="M3.34913 107.795C3.66909 107.334 4.62203 107.001 5.02648 106.745C5.65393 106.348 6.2606 105.918 6.84511 105.458C8.06537 104.5 9.18869 103.417 10.2192 102.255C12.7692 99.3728 14.7595 96.0162 16.4244 92.5474C17.3718 90.5637 18.5076 87.9369 18.8802 85.2233L19.8151 85.355C19.4231 88.2003 18.2514 90.9167 17.2735 92.9635C17.1433 93.2367 17.0103 93.5071 16.876 93.7789C15.1778 97.1873 13.1487 100.47 10.5765 103.277C9.47263 104.482 8.26898 105.594 6.96146 106.569C6.33816 107.033 5.69271 107.467 5.02648 107.864C4.78409 108.008 2.99316 108.902 3.26049 107.977C3.27849 107.913 3.30896 107.853 3.34913 107.795Z" fill="#B59D66"/>
<path d="M0.275618 9.79816C0.285313 9.75753 0.297779 9.7183 0.310245 9.67908C0.353183 9.54319 0.394737 9.50957 0.51524 9.47734C0.533246 9.47314 0.788102 9.39329 0.786717 9.38908C0.984785 9.96207 1.39062 10.472 1.78121 10.9637C2.25076 11.5549 2.78264 12.2246 3.47795 12.495C3.90733 12.6603 4.41012 12.6785 4.89767 12.6953C5.09297 12.7023 5.29658 12.7093 5.4711 12.6771L5.64285 13.6171C5.36722 13.669 5.0999 13.6591 4.86582 13.6507C4.3284 13.6325 3.71896 13.6101 3.14138 13.3888C2.20644 13.0273 1.56375 12.2162 1.04711 11.5647C0.735469 11.1725 0.265922 10.7018 0.236835 10.1666C0.227139 10.0405 0.245145 9.91724 0.275618 9.79816Z" fill="#B59D66"/>
</g>
<defs>
<clipPath id="clip0">
<rect width="114" height="37" fill="white" transform="translate(37) rotate(90)"/>
</clipPath>
</defs>
</svg>
