<svg width="37" height="114" viewBox="0 0 37 114" fill="none" xmlns="http://www.w3.org/2000/svg">
<g clip-path="url(#clip0)">
<path d="M30.0122 70.3411C30.0136 71.9116 29.7338 73.3896 28.8903 74.7009C28.4055 75.4644 27.7933 76.0051 27.1202 76.2615C26.2933 76.5795 25.2821 76.5081 24.271 76.057C20.5465 74.3983 19.8789 70.0834 19.3401 66.616C19.2653 66.1313 19.1919 65.6578 19.1129 65.2039C18.8802 63.8716 18.4799 62.5505 18.0935 61.2715C17.6558 59.8299 17.2057 58.3393 16.9827 56.8053C16.9522 56.5783 16.9203 56.3486 16.8317 56.1678C16.7209 55.9381 16.4937 55.7434 16.2527 55.5374C14.7527 54.2528 13.5282 52.6361 12.6999 50.8331C12.5476 50.501 12.2318 49.9267 12.7193 49.7137C12.8786 49.6437 13.2734 49.5764 13.3537 49.7824C13.3786 49.8482 13.3551 49.9463 13.3786 50.0219C13.416 50.1438 13.4825 50.2629 13.5338 50.3792C13.7402 50.8331 13.9728 51.2744 14.2291 51.7002C14.743 52.552 15.3552 53.3435 16.0505 54.051C16.2943 54.299 16.5491 54.5372 16.8123 54.7641C17.153 55.0555 17.4813 55.3371 17.678 55.7434C17.8345 56.0614 17.8816 56.399 17.9162 56.6694C18.1267 58.1264 18.5686 59.5819 18.9952 60.9885C19.3899 62.2942 19.7986 63.6447 20.0409 65.0344C20.1213 65.4939 20.1961 65.973 20.2709 66.4647C20.7986 69.8704 21.3969 73.7314 24.6491 75.1786C25.1021 75.3803 25.9802 75.6731 26.7822 75.3635C27.393 75.1324 27.8321 74.5916 28.0939 74.1783C29.4208 72.1161 29.1369 69.4333 28.6964 66.6329C28.2809 64.0047 27.8099 61.0249 27.0952 58.1894C26.99 57.7775 26.8792 57.3656 26.7697 56.9524C26.375 55.48 25.9664 53.9572 25.8085 52.4007C25.6575 50.9185 25.6852 49.4251 25.7157 47.9808C25.7642 45.5361 25.8085 43.2288 25.0591 40.9564C24.4262 39.033 23.174 36.8223 21.3415 34.386C20.89 33.7864 20.3928 33.2008 19.9107 32.6335C19.3124 31.9274 18.6932 31.1975 18.142 30.42C17.376 29.3399 16.7375 28.135 16.4425 26.8322C16.4009 26.6487 16.3663 26.4651 16.34 26.2788C16.322 26.1527 16.2389 25.8627 16.3081 25.7521C16.333 25.7114 16.3732 25.6834 16.4134 25.6582C16.4785 25.6162 16.5491 25.5769 16.6267 25.5713C16.6904 25.5671 16.7541 25.5867 16.8137 25.6134C17.3469 25.8543 17.3317 26.5632 17.4771 27.0521C17.66 27.6657 17.9259 28.2527 18.2389 28.8089C18.4439 29.1717 18.6697 29.5234 18.9093 29.8638C19.4357 30.6063 20.0423 31.3208 20.6282 32.0115C21.1185 32.59 21.6241 33.1868 22.0923 33.8089C23.9898 36.3291 25.2891 38.6323 25.9553 40.6566C26.7559 43.0859 26.7046 45.5852 26.6589 48.0032C26.6298 49.4181 26.6021 50.8835 26.7462 52.3069C26.8972 53.7862 27.2947 55.2712 27.6797 56.7072C27.7919 57.1233 27.9027 57.5394 28.0094 57.9568C28.7352 60.8344 29.2103 63.838 29.6286 66.4858C29.8391 67.8054 30.0122 69.1027 30.0122 70.3411Z" fill="#B59D66"/>
<path d="M21.7321 106.296C21.7321 106.963 21.6864 107.626 21.595 108.279C21.433 109.437 21.1476 110.395 20.7252 111.208C20.2182 112.182 19.4717 113.019 18.5644 113.63L18.0173 114L17.8469 113.357C16.4092 107.956 13.8454 102.319 11.7858 97.7897C11.5905 97.3624 11.3938 96.9352 11.1957 96.5093C10.2913 94.5578 9.35771 92.5404 8.74549 90.4236C7.81748 87.2197 7.63465 83.8952 7.50445 80.1939C7.44766 78.5618 7.39641 76.9284 7.35209 75.2949C7.30777 73.6572 7.27037 72.0209 7.2399 70.3832C7.23159 69.9096 7.22328 69.4361 7.21497 68.9626C7.21081 68.7259 7.20804 68.4891 7.20389 68.2537C7.20112 68.087 7.18034 67.8152 7.25513 67.6653C7.29807 67.5799 7.37979 67.5196 7.46844 67.4874C7.55708 67.4552 7.65266 67.4468 7.74684 67.4454C7.8438 67.444 7.94491 67.4482 8.02802 67.4972C8.17761 67.5841 8.13882 67.7438 8.14159 67.8909C8.14436 68.0954 8.14713 68.2986 8.15129 68.5031C8.15822 68.9122 8.16514 69.3199 8.17207 69.7289C8.1873 70.5471 8.20254 71.3666 8.22054 72.1848C8.25656 73.8239 8.29949 75.463 8.34797 77.1021C8.37844 78.122 8.41169 79.1432 8.4477 80.1631C8.57374 83.7986 8.75242 87.0599 9.64996 90.1574C10.2428 92.2042 11.1625 94.1879 12.0503 96.1072C12.2484 96.5359 12.4478 96.9646 12.6431 97.3947C14.6321 101.768 17.0879 107.168 18.5713 112.434C19.1088 111.969 19.5589 111.401 19.8886 110.768C20.2598 110.054 20.5119 109.196 20.6587 108.148C20.8886 106.523 20.8097 104.818 20.4315 103.217C19.7542 100.344 19.0284 97.7281 18.2154 95.2232C18.1281 94.9556 18.0422 94.6825 17.9578 94.4065C17.6558 93.4342 17.3428 92.4297 16.8995 91.5528C16.786 91.3286 16.6281 91.082 16.4619 90.8243C16.0629 90.1994 15.61 89.4906 15.5435 88.7929C15.4923 88.1261 15.7651 87.3625 16.0158 86.6887C16.1114 86.4309 16.2042 86.183 16.2666 85.963C16.8206 84.0115 17.3206 82.0166 17.75 80.0328C18.6254 75.9897 19.2459 71.8528 19.5935 67.7396L20.534 67.8209C20.1836 71.976 19.5575 76.1522 18.6725 80.236C18.2389 82.2393 17.7348 84.2553 17.1738 86.2264C17.1045 86.4687 17.0034 86.7405 16.8995 87.0249C16.6862 87.6021 16.4425 88.2549 16.484 88.7018C16.527 89.1684 16.9134 89.7722 17.2541 90.3045C17.4383 90.5917 17.6129 90.8677 17.7389 91.1171C18.2181 92.0655 18.5423 93.1106 18.8567 94.1193C18.9412 94.3897 19.0243 94.66 19.1101 94.9234C19.9315 97.4549 20.6642 100.094 21.3485 102.994C21.6033 104.065 21.7321 105.184 21.7321 106.296Z" fill="#B59D66"/>
<path d="M13.2443 0.360055C13.2443 0.406281 13.2401 0.455315 13.2415 0.505746C13.2733 1.48081 12.8814 2.53151 12.6348 3.47434C12.355 4.54186 12.0517 5.60516 11.729 6.66007C11.053 8.87636 10.2954 11.066 9.4685 13.2291C7.83409 17.5047 5.94621 21.6978 3.70789 25.6862C2.84221 27.2287 2.2951 30.1258 1.85464 32.4528C1.67042 33.4264 1.49729 34.3454 1.31722 35.0809C0.573428 38.142 1.09284 41.479 1.55269 44.4252C2.11504 48.0326 2.68846 50.5963 3.24112 53.0774C3.79931 55.5753 4.37551 58.1572 4.9434 61.7996C5.20241 63.4611 5.39217 65.2263 5.575 66.9341C6.05701 71.4451 6.55703 76.1102 8.3992 79.9698L7.54876 80.3845C5.63456 76.3764 5.12623 71.6286 4.63591 67.0363C4.44615 65.2628 4.26747 63.5872 4.00984 61.9481C3.4475 58.3365 2.87407 55.77 2.31864 53.2875C1.76184 50.7925 1.18564 48.2119 0.617751 44.5737C0.145434 41.5392 -0.389212 38.0985 0.398906 34.854C0.572043 34.1437 0.74241 33.2359 0.925242 32.2748C1.40171 29.7532 1.94329 26.8952 2.88515 25.2169C2.89484 25.2001 2.90454 25.1819 2.91424 25.1651C5.15116 21.1696 7.03627 16.9682 8.66376 12.6841C9.48373 10.5239 10.2358 8.3356 10.9035 6.12071C11.2206 5.06861 11.5184 4.0095 11.7927 2.94479C11.9243 2.43344 12.0503 1.92069 12.1708 1.40655C12.229 1.15859 12.319 0.893815 12.3259 0.640244C12.3329 0.434304 12.2068 0.194741 12.4464 0.0574423C12.5226 0.0140157 12.6127 0.00841577 12.6999 0.00421198C12.8689 -0.0041956 13.0628 -0.00139561 13.1722 0.128892C13.2373 0.201745 13.2456 0.278802 13.2443 0.360055Z" fill="#B59D66"/>
<path d="M23.9774 96.3286C23.9677 96.3636 23.9552 96.3986 23.94 96.4308C23.9233 96.4659 23.904 96.4995 23.8735 96.5247C23.825 96.5653 23.7585 96.5737 23.6962 96.5709C23.4981 96.5653 23.3028 96.4701 23.1754 96.3174C22.9039 95.9909 22.9579 95.3213 22.8845 94.9122C22.7986 94.4387 22.692 93.9694 22.566 93.5057C22.3056 92.5558 21.9634 91.6298 21.5659 90.729C20.9953 89.4387 20.311 88.2045 19.5769 87.0025C19.3775 86.6761 17.1585 83.2438 17.1225 83.269L17.8968 82.7226C19.2306 84.6629 20.5437 86.6299 21.6352 88.7229C22.2723 89.9459 22.8333 91.2123 23.2543 92.5292C23.4607 93.175 23.6339 93.8335 23.7654 94.4989C23.8319 94.8324 23.8873 95.1686 23.9317 95.5048C23.9649 95.7612 24.0466 96.0708 23.9774 96.3286Z" fill="#B59D66"/>
<path d="M29.864 101.794C29.8308 101.868 29.7823 101.937 29.7172 101.998C29.6673 102.046 29.6036 102.086 29.5357 102.081C29.4887 102.077 29.4471 102.053 29.4069 102.026C28.9194 101.7 28.8571 101.054 28.587 100.558C28.2905 100.013 27.9193 99.5143 27.5509 99.0184C26.2018 97.2041 24.4746 95.4067 22.8125 94.0885L23.3956 93.3362C25.145 94.7245 26.8888 96.5373 28.3058 98.444C28.7144 98.9931 29.1216 99.5493 29.4457 100.156C29.6646 100.569 30.0898 101.298 29.864 101.794Z" fill="#B59D66"/>
<path d="M35.7798 108.424C35.7798 108.838 35.7382 109.242 35.6565 109.637C35.511 110.328 34.9916 112.602 34.3476 112.855L34.1093 112.949L33.8226 112.79C31.4126 111.045 29.2615 108.993 27.1811 107.008C24.9054 104.836 22.5521 102.591 19.9107 100.817L20.4329 100.021C23.1408 101.84 25.5245 104.114 27.8293 106.313C29.7906 108.185 31.8156 110.117 34.0415 111.77C34.2825 111.202 34.6232 109.965 34.7326 109.439C35.1758 107.322 34.065 105.101 33.0553 103.611C31.9015 101.907 29.9637 99.9122 27.9858 99.4246L28.2088 98.4958C31.0247 99.1893 33.227 102.172 33.8337 103.07C35.1288 104.984 35.7798 106.778 35.7798 108.424Z" fill="#B59D66"/>
<path d="M37 104.297C37 104.553 36.9861 104.807 36.9584 105.058L36.8823 105.747L36.2728 105.429C35.2991 104.921 34.3295 104.384 33.3932 103.836L33.8655 103.008C34.5816 103.427 35.3157 103.838 36.0568 104.235C36.0443 102.872 35.5831 101.422 34.7284 100.08C33.9209 98.811 32.8004 97.637 31.0981 96.2739C30.2324 95.5804 29.1895 94.8029 28.0066 94.2902C27.8418 94.2187 27.5883 94.1641 27.3431 94.1109C26.9276 94.0212 26.4996 93.9273 26.1866 93.713C25.8278 93.465 25.6187 93.0588 25.4345 92.7001C25.368 92.5698 25.3029 92.4437 25.2336 92.3331C23.7433 89.9907 21.9371 88.36 20.149 87.7422L20.4551 86.8386C22.4441 87.525 24.422 89.2944 26.0273 91.8161C26.1118 91.9492 26.1921 92.1019 26.2725 92.2602C26.4123 92.5306 26.555 92.8122 26.7185 92.9243C26.8777 93.0349 27.2309 93.1106 27.5398 93.1778C27.8293 93.2409 28.1285 93.3053 28.3764 93.4118C29.6632 93.968 30.7699 94.7917 31.684 95.5244C33.4708 96.9562 34.6537 98.2016 35.5207 99.5619C36.4875 101.078 37 102.732 37 104.297Z" fill="#B59D66"/>
<path d="M35.1648 111.474C35.1648 111.513 35.1634 111.553 35.162 111.592L34.2187 111.546C34.2478 110.872 33.7894 110.203 33.3835 109.703C32.7007 108.864 32.0746 108.336 31.4139 108.043C30.623 107.692 29.7615 107.717 29.1673 108.106L28.6548 107.304C29.5122 106.742 30.7158 106.69 31.7948 107.168C32.5954 107.523 33.3323 108.136 34.1135 109.095C34.6066 109.703 35.1648 110.516 35.1648 111.474Z" fill="#B59D66"/>
<path d="M19.4536 109.852C19.4536 110.699 19.2306 111.529 19.0132 112.338C18.9245 112.671 18.8345 113.004 18.7625 113.336L17.84 113.13C17.9162 112.783 18.009 112.435 18.1018 112.088C18.3885 111.019 18.6586 110.009 18.4093 109.034C18.0713 107.718 16.8483 106.453 15.6252 106.153L15.8482 105.225C17.4051 105.607 18.8982 107.141 19.3234 108.793C19.4162 109.15 19.4536 109.503 19.4536 109.852Z" fill="#B59D66"/>
<path d="M29.3848 72.0209C29.3848 72.853 29.3792 73.6796 28.9208 74.4039C28.8848 74.4613 28.8446 74.5187 28.7878 74.5566C28.7435 74.586 28.6936 74.6028 28.6424 74.6154C28.562 74.635 28.4748 74.6462 28.4 74.6126C28.1936 74.5201 28.3363 74.0228 28.3515 73.8435C28.382 73.5115 28.4027 73.178 28.418 72.846C28.4415 72.3599 28.5482 71.7169 28.3972 71.2433C27.7351 69.883 26.983 68.5199 26.1714 67.2101C26.1686 67.2044 26.1658 67.2002 26.163 67.196L23.8084 67.9413C23.6186 68.0016 23.4206 68.066 23.2959 68.1655C23.1602 68.2734 23.0604 68.4569 22.9718 68.6404C22.1047 70.4308 22.1573 72.6289 23.1103 74.3758C23.1103 74.3758 22.8748 74.5089 22.8596 74.5159C22.746 74.579 22.6033 74.6476 22.4731 74.5944C22.4053 74.5664 22.3554 74.5089 22.3069 74.4543C22.1283 74.2456 21.9039 74.034 21.8125 73.7706C21.7266 73.5199 21.6532 73.2649 21.595 73.0057C21.4773 72.4832 21.4163 71.948 21.4122 71.4115C21.4052 70.3117 21.6421 69.2078 22.1213 68.2201C22.2529 67.9483 22.4261 67.6401 22.71 67.4146C22.9704 67.2058 23.2779 67.1078 23.5244 67.0293L25.868 66.284C25.9927 66.2448 26.2226 66.1706 26.4747 66.256C26.7531 66.3485 26.9013 66.5866 26.9719 66.7015C27.8002 68.0394 28.5676 69.4319 29.2532 70.8413C29.3501 71.036 29.3848 71.4899 29.3848 72.0209Z" fill="#B59D66"/>
<path d="M33.6509 6.20473C33.3309 6.66564 32.378 6.99907 31.9735 7.25544C31.3461 7.6519 30.7394 8.08199 30.1549 8.5415C28.9346 9.49974 27.8113 10.5827 26.7808 11.7455C24.2308 14.6272 22.2405 17.9838 20.5756 21.4526C19.6282 23.4363 18.4924 26.0631 18.1198 28.7767L17.1849 28.645C17.5769 25.7997 18.7486 23.0833 19.7265 21.0365C19.8567 20.7633 19.9897 20.4929 20.124 20.2211C21.8222 16.8127 23.8513 13.5303 26.4235 10.7228C27.5274 9.51796 28.731 8.40561 30.0385 7.43056C30.6618 6.96684 31.3073 6.53255 31.9735 6.13609C32.2159 5.99179 34.0068 5.09799 33.7395 6.02261C33.7215 6.08705 33.691 6.14729 33.6509 6.20473Z" fill="#B59D66"/>
<path d="M36.7244 104.202C36.7147 104.242 36.7022 104.282 36.6898 104.321C36.6468 104.457 36.6053 104.49 36.4848 104.523C36.4668 104.527 36.2119 104.607 36.2133 104.611C36.0152 104.038 35.6094 103.528 35.2188 103.036C34.7492 102.445 34.2174 101.775 33.522 101.505C33.0927 101.34 32.5899 101.322 32.1023 101.305C31.907 101.298 31.7034 101.291 31.5289 101.323L31.3571 100.383C31.6328 100.331 31.9001 100.341 32.1342 100.349C32.6716 100.367 33.281 100.39 33.8586 100.611C34.7936 100.973 35.4362 101.784 35.9529 102.435C36.2645 102.828 36.7341 103.298 36.7632 103.833C36.7729 103.959 36.7549 104.083 36.7244 104.202Z" fill="#B59D66"/>
</g>
<defs>
<clipPath id="clip0">
<rect width="114" height="37" fill="white" transform="translate(0 114) rotate(-90)"/>
</clipPath>
</defs>
</svg>
