<svg width="138" height="138" viewBox="0 0 138 138" fill="none" xmlns="http://www.w3.org/2000/svg">
<path d="M135.935 85.6919C126.718 122.656 89.2749 145.152 52.3021 135.934C15.3444 126.718 -7.15421 89.2777 2.0669 52.3157C11.2794 15.3471 48.7224 -7.15092 85.6844 2.0648C122.655 11.2805 145.151 48.7256 135.935 85.6919V85.6919Z" fill="url(#paint0_linear)"/>
<path d="M99.4255 58.7485C100.799 49.6327 93.8079 44.7323 84.2482 41.4632L87.3492 29.1148L79.7778 27.2415L76.7588 39.2645C74.7684 38.7721 72.724 38.3076 70.6926 37.8473L73.7332 25.745L66.1661 23.8718L63.063 36.2159C61.4154 35.8434 59.798 35.4752 58.2281 35.0877L58.2367 35.0492L47.7951 32.4609L45.781 40.4891C45.781 40.4891 51.3986 41.7672 51.28 41.8464C54.3465 42.6064 54.9007 44.6209 54.808 46.218L51.2756 60.2856C51.487 60.3391 51.7609 60.4162 52.0628 60.536C51.8105 60.474 51.5409 60.4054 51.2627 60.3391L46.3114 80.0456C45.9362 80.9705 44.9852 82.3577 42.8417 81.8311C42.9172 81.9403 37.3384 80.4674 37.3384 80.4674L33.5796 89.0715L43.4325 91.5099C45.2655 91.9659 47.0619 92.4433 48.8302 92.8929L45.6969 105.383L53.2596 107.256L56.3628 94.8989C58.4287 95.4555 60.4342 95.9693 62.3966 96.4531L59.3043 108.752L66.8756 110.626L70.009 98.1594C82.9198 100.585 92.6283 99.6066 96.7148 88.0139C100.008 78.6797 96.5509 73.2955 89.758 69.7845C94.705 68.652 98.4314 65.4215 99.4255 58.7485V58.7485ZM82.1262 82.8309C79.7864 92.165 63.9557 87.119 58.8233 85.8537L62.981 69.3071C68.1134 70.5788 84.5717 73.0964 82.1262 82.8309ZM84.4682 58.6135C82.3332 67.1042 69.1572 62.7903 64.883 61.7328L68.6526 46.7254C72.9267 47.783 86.6915 49.7568 84.4682 58.6135Z" fill="white"/>
<defs>
<linearGradient id="paint0_linear" x1="69" y1="0" x2="69" y2="138" gradientUnits="userSpaceOnUse">
<stop stop-color="#F09DED"/>
<stop offset="1" stop-color="#0707B2"/>
</linearGradient>
</defs>
</svg>
