<svg width="83" height="77" viewBox="0 0 83 77" fill="none" xmlns="http://www.w3.org/2000/svg">
<path d="M34.5747 45.5V47.25C34.5747 49.175 36.129 50.75 38.0287 50.75H44.9367C46.8364 50.75 48.3907 49.175 48.3907 47.25V42.77C48.3907 41.265 47.4409 39.9175 46.0247 39.445L36.9407 37.5375C35.5245 37.065 34.5747 35.7175 34.5747 34.2125V29.75C34.5747 27.825 36.129 26.25 38.0287 26.25H44.9367C46.8364 26.25 48.3907 27.825 48.3907 29.75V33.25" stroke="#DBC087" stroke-width="2" stroke-miterlimit="10"/>
<path d="M41.4827 26.25V19.25" stroke="#DBC087" stroke-width="2" stroke-miterlimit="10"/>
<path d="M41.4827 50.75V57.75" stroke="#DBC087" stroke-width="2" stroke-miterlimit="10"/>
<path d="M25.9224 61.53C20.5859 57.3475 17.1319 50.785 17.1319 43.4C17.1319 39.6725 18.0645 36.085 19.6361 32.97L24.2126 36.75L26.3714 12.04L3.54034 19.8275L8.32416 23.73C6.3381 28.2625 5.21554 33.25 5.21554 38.5C5.21554 58.8 21.4494 75.25 41.4827 75.25" stroke="#DBC087" stroke-width="2" stroke-miterlimit="10"/>
<path d="M57.0776 15.47C62.414 19.6525 65.8681 26.215 65.8681 33.6C65.8681 37.3275 64.9355 40.915 63.3639 44.03L58.8046 40.25L56.6458 64.96L79.4769 57.1725L74.6931 53.27C76.6619 48.755 77.7844 43.7675 77.7844 38.5C77.7844 18.2 61.5505 1.75 41.5173 1.75" stroke="#DBC087" stroke-width="2" stroke-miterlimit="10"/>
</svg>
