<svg width="80" height="78" viewBox="0 0 80 78" fill="none" xmlns="http://www.w3.org/2000/svg">
<path d="M46.6667 56.0074L28.3333 67.8261L1.66669 49.1739" stroke="#DBC087" stroke-width="2" stroke-miterlimit="10" stroke-linecap="round" stroke-linejoin="round"/>
<path d="M51.6667 16.9565V20.3478" stroke="#DBC087" stroke-width="2" stroke-miterlimit="10"/>
<path d="M28.3334 32.2173V35.6087" stroke="#DBC087" stroke-width="2" stroke-miterlimit="10"/>
<path d="M46.6667 38.8982L19.2333 20.0256L31.5833 12.446L38.8333 17.0752L60 30.5895V57.72L46.6667 66.4695V38.8982Z" stroke="#DBC087" stroke-width="2" stroke-miterlimit="10" stroke-linecap="round" stroke-linejoin="round"/>
<path d="M54.5 27.0795L64.0333 20.9413C62.5833 20.0087 62.2833 18.6861 64.0333 17.5669L53.55 10.8182C51.8 11.9374 49.75 11.7508 48.3 10.8182L38.7 16.9904" stroke="#DBC087" stroke-width="2" stroke-miterlimit="10"/>
<path d="M26.3667 24.9431L15.9333 31.6409C17.6833 32.76 17.4 34.0657 15.95 34.9983L26.4333 41.747C27.8833 40.8144 29.9167 40.6278 31.6667 41.7639L41.55 35.4052" stroke="#DBC087" stroke-width="2" stroke-miterlimit="10"/>
<path d="M46.6667 39.0509L28.3333 50.8695L1.66669 33.913L21.3834 21.5009" stroke="#DBC087" stroke-width="2" stroke-miterlimit="10" stroke-linecap="round" stroke-linejoin="round"/>
<path d="M33.4333 13.6161L51.6667 1.69562L78.3333 18.6521L59.9 30.5217" stroke="#DBC087" stroke-width="2" stroke-miterlimit="10" stroke-linecap="round" stroke-linejoin="round"/>
<path d="M46.6667 47.563L28.3333 59.3478L1.66669 40.6956" stroke="#DBC087" stroke-width="2" stroke-miterlimit="10" stroke-linecap="round" stroke-linejoin="round"/>
<path d="M78.3333 27.1304L60 38.9321" stroke="#DBC087" stroke-width="2" stroke-miterlimit="10" stroke-linecap="round" stroke-linejoin="round"/>
<path d="M46.6667 64.4856L28.3333 76.3043L1.66669 57.6522" stroke="#DBC087" stroke-width="2" stroke-miterlimit="10" stroke-linecap="round" stroke-linejoin="round"/>
<path d="M78.3333 44.0869L60 55.9056" stroke="#DBC087" stroke-width="2" stroke-miterlimit="10" stroke-linecap="round" stroke-linejoin="round"/>
<path d="M78.3333 35.6086L60 47.4273" stroke="#DBC087" stroke-width="2" stroke-miterlimit="10" stroke-linecap="round" stroke-linejoin="round"/>
</svg>
