<svg width="60" height="82" viewBox="0 0 60 82" fill="none" xmlns="http://www.w3.org/2000/svg">
<path d="M24.7059 21.5491C12.3 33.4615 1.78236 47.9697 1.76471 58.8865C1.76471 73.9636 14.3824 80.2221 30 80.2221C45.6176 80.2221 58.2353 73.9814 58.2353 58.8865C58.2353 44.9649 47.2765 33.0881 35.2941 21.5491" stroke="#DBC087" stroke-width="2" stroke-miterlimit="10"/>
<path d="M24.7059 57.1085V58.8865C24.7059 60.8422 26.2941 62.4424 28.2353 62.4424H31.7647C33.7059 62.4424 35.2941 60.8422 35.2941 58.8865V56.1128C35.2941 54.5838 34.3235 53.2147 32.8765 52.7347L27.1235 50.7967C25.6765 50.3166 24.7059 48.9654 24.7059 47.4363V44.6627C24.7059 42.7069 26.2941 41.1068 28.2353 41.1068H31.7647C33.7059 41.1068 35.2941 42.7069 35.2941 44.6627V46.4407" stroke="#DBC087" stroke-width="2" stroke-miterlimit="10"/>
<path d="M30 41.1067V35.7728" stroke="#DBC087" stroke-width="2" stroke-miterlimit="10"/>
<path d="M30 62.4423V67.7762" stroke="#DBC087" stroke-width="2" stroke-miterlimit="10"/>
<path d="M35.2941 21.549C34.6588 22.598 31.6588 23.327 30 23.327C28.3412 23.327 25.3765 22.5269 24.7059 21.549C24.7059 21.549 16.7471 6.09848 17.0471 5.54731C19.6235 0.533429 24.9882 1.51131 30.0176 2.88035C37.1824 4.83612 40.0235 4.48052 41.4 4.42718C41.5059 6.47185 35.2941 21.549 35.2941 21.549Z" stroke="#DBC087" stroke-width="2" stroke-miterlimit="10"/>
</svg>
