<svg width="167" height="167" viewBox="0 0 167 167" fill="none" xmlns="http://www.w3.org/2000/svg">
<path d="M157 83.5C157 124.093 124.093 157 83.5 157C42.9071 157 10 124.093 10 83.5C10 42.9071 42.9071 10 83.5 10C124.093 10 157 42.9071 157 83.5Z" stroke="#DBC087" stroke-width="20"/>
<path d="M66.8937 98.9388C52.416 84.4611 41.6142 69.3592 35.7725 56.7902C32.8425 50.4862 31.2795 45.0732 30.9708 40.8457C30.6607 36.5992 31.6369 34.2154 32.9262 32.9262C34.2154 31.6369 36.5992 30.6607 40.8457 30.9708C45.0732 31.2795 50.4862 32.8425 56.7902 35.7725C69.3592 41.6142 84.4611 52.416 98.9388 66.8937C113.416 81.3714 124.218 96.4733 130.06 109.042C132.99 115.346 134.553 120.759 134.862 124.987C135.172 129.233 134.196 131.617 132.906 132.906C131.617 134.196 129.233 135.172 124.987 134.862C120.759 134.553 115.346 132.99 109.042 130.06C96.4733 124.218 81.3714 113.416 66.8937 98.9388Z" stroke="#DBC087" stroke-width="10"/>
<path d="M132.906 32.9262C134.196 34.2154 135.172 36.5992 134.862 40.8457C134.553 45.0732 132.99 50.4862 130.06 56.7902C124.218 69.3592 113.416 84.4611 98.9388 98.9388C84.4611 113.416 69.3592 124.218 56.7902 130.06C50.4862 132.99 45.0732 134.553 40.8457 134.862C36.5992 135.172 34.2154 134.196 32.9262 132.906C31.6369 131.617 30.6607 129.233 30.9708 124.987C31.2795 120.759 32.8425 115.346 35.7725 109.042C41.6142 96.4733 52.416 81.3714 66.8937 66.8937C81.3714 52.416 96.4733 41.6142 109.042 35.7725C115.346 32.8425 120.759 31.2795 124.987 30.9708C129.233 30.6607 131.617 31.6369 132.906 32.9262Z" stroke="#DBC087" stroke-width="10"/>
</svg>
